<?xml version="1.0" encoding="UTF-8"?>
<svg width="99px" height="126px" viewBox="0 0 99 126" version="1.1" xmlns="http://www.w3.org/2000/svg" xmlns:xlink="http://www.w3.org/1999/xlink">
    <title>brand-positioning</title>
    <g id="Page-1" stroke="none" stroke-width="1" fill="none" fill-rule="evenodd">
        <g id="home-v2" transform="translate(-498.000000, -1048.000000)" fill-rule="nonzero">
            <g id="Rectangle-18-copy-18" transform="translate(-8.462793, -184.000000)">
                <g id="Group-19" transform="translate(369.000000, 1189.000000)">
                    <g id="01-copy-2" transform="translate(0.000000, 0.000000)">
                        <g id="brand-positioning" transform="translate(137.462793, 43.000000)">
                            <path d="M82.8559881,89.3504207 L80.8169149,90.3364158 L74.8820007,97.8091154 C73.7476868,99.2447339 72.0210452,100.07964 70.1960033,100.074998 L60.6771651,100.074998 L55.2986569,102.675899 L72.0655075,124.812142 C72.6321437,125.560298 73.5143883,125.999749 74.4504614,125.999749 C74.5466088,125.999749 74.6435053,125.994985 74.7401522,125.985707 C75.773947,125.885055 76.6821264,125.254084 77.1403399,124.318141 L82.3922332,113.591557 L94.0892461,111.374573 C95.109904,111.181127 95.9580228,110.47079 96.3306829,109.497271 C96.7033429,108.523752 96.5473968,107.425891 95.9185433,106.595806 L82.8559881,89.3504207 Z" id="Path" fill="#454F5B"></path>
                            <path d="M28.8041909,100.075249 C26.9793126,100.079726 25.2528477,99.244953 24.1184432,97.8096169 L18.1832792,90.3369173 L16.144206,89.3509222 L3.08165093,106.596057 C2.45279735,107.426142 2.29685124,108.524003 2.66951132,109.497522 C3.04217139,110.471041 3.89029017,111.181378 4.91094807,111.374824 L16.6082107,113.591808 L21.8598543,124.318392 C22.3180678,125.254335 23.2262472,125.885306 24.260042,125.985957 C24.3569386,125.995152 24.4535022,126 24.5497328,126 C25.4858058,126 26.3680505,125.560549 26.9346867,124.812392 L43.7015373,102.67615 L38.3232789,100.075249 L28.8041909,100.075249 Z" id="Path" fill="#454F5B"></path>
                            <path d="M96.6545076,50.9046351 L98.9248339,40.9162938 C99.1277736,40.0235143 98.9148009,39.0865261 98.3462016,38.3705607 L91.9847428,30.3607295 L89.7144164,20.372639 C89.5114805,19.4799049 88.9147582,18.7285309 88.0931472,18.3311877 L78.9007106,13.8859345 L72.539002,5.87610328 C71.9703718,5.16014664 71.1080003,4.74315263 70.1960033,4.74316178 L59.9931453,4.74316178 L50.8004589,0.297908565 C49.9786785,-0.0993028549 49.0215157,-0.0993028549 48.1997353,0.297908565 L39.0070489,4.74316178 L28.8041909,4.74316178 C27.8922814,4.74322894 27.0300175,5.1602154 26.4614419,5.87610328 L20.0997333,13.8859345 L10.9072967,18.3306862 C10.08559,18.72797 9.48876824,19.4793535 9.28577773,20.3721374 L7.01545141,30.3607295 L0.653992563,38.3705607 C0.085305652,39.0864838 -0.127759891,40.0234761 0.0751105459,40.9162938 L2.3456866,50.9046351 L0.0751105459,60.8929764 C-0.127759891,61.7857941 0.085305652,62.7227864 0.653992563,63.4387095 L7.01545141,71.4485407 L9.28577773,81.4366312 C9.48876824,82.3294152 10.08559,83.0807986 10.9072967,83.4780825 L20.0997333,87.9233357 L26.4614419,95.9331669 C27.0300175,96.6490548 27.8922814,97.0660412 28.8041909,97.0661084 L39.0070489,97.0661084 L48.1997353,101.511362 C49.0215157,101.908573 49.9786785,101.908573 50.8004589,101.511362 L59.9931453,97.0661084 L70.1960033,97.0661084 C71.1080003,97.0661175 71.9703718,96.6491235 72.539002,95.9331669 L78.9007106,87.9233357 L88.0931472,83.478584 C88.9147582,83.0812408 89.5114805,82.3298668 89.7144164,81.4371327 L91.9847428,71.4490422 L98.3462016,63.439211 C98.9148009,62.7232456 99.1277736,61.7862574 98.9248339,60.8934779 L96.6545076,50.9046351 Z M49.5000971,87.7666096 C29.3965585,87.7666096 13.039021,71.34297 13.039021,51.1553968 C13.039021,30.9678236 29.3965585,14.544184 49.5000971,14.544184 C69.6036356,14.544184 85.9611732,30.9690774 85.9611732,51.1553968 C85.9611732,71.3417162 69.6048843,87.7666096 49.5000971,87.7666096 Z" id="Shape" fill="#BD9F34"></path>
                            <path d="M49.5000971,17.5533248 C31.0477958,17.5533248 16.0358218,32.627114 16.0358218,51.1553968 C16.0358218,69.6836796 31.0477958,84.7574688 49.5000971,84.7574688 C67.9523984,84.7574688 82.9643724,69.6836796 82.9643724,51.1553968 C82.9643724,32.627114 67.9523984,17.5533248 49.5000971,17.5533248 Z M49.5000971,32.680777 C51.1551845,32.680777 52.4968979,34.0280152 52.4968979,35.6899178 C52.4968979,37.3518204 51.1551845,38.6990586 49.5000971,38.6990586 C47.8450097,38.6990586 46.5032963,37.3518204 46.5032963,35.6899178 C46.5032963,34.0280152 47.8450097,32.680777 49.5000971,32.680777 L49.5000971,32.680777 Z M28.5224917,46.6416857 C26.8674043,46.6416857 25.5256909,45.2944474 25.5256909,43.6325449 C25.5256909,41.9706423 26.8674043,40.6234041 28.5224917,40.6234041 C30.177579,40.6234041 31.5192924,41.9706423 31.5192924,43.6325449 C31.5192924,45.2944474 30.177579,46.6416857 28.5224917,46.6416857 Z M68.1399482,50.0174401 L65.2882425,67.1973771 C65.0473783,68.6483529 63.7971106,69.7117649 62.3321483,69.7117649 L36.6680459,69.7117649 C35.2030835,69.7117649 33.9528159,68.6483529 33.7119517,67.1973771 L30.860246,50.0174401 C30.6645595,48.839276 31.1813753,47.6564282 32.17725,47.0031834 C33.1731248,46.3499385 34.4595056,46.3499781 35.4553405,47.0032841 L41.5987821,51.0322728 L46.9405795,42.230536 C47.4845561,41.3342742 48.4543125,40.7873815 49.4995976,40.7873815 C50.5448827,40.7873815 51.5146392,41.3342742 52.0586158,42.230536 L57.4006629,51.0322728 L63.5441045,47.0032841 C64.5399394,46.3499781 65.8263202,46.3499385 66.822195,47.0031834 C67.8180697,47.6564282 68.3348854,48.839276 68.139199,50.0174401 L68.1399482,50.0174401 Z M70.4777025,46.6416857 C68.8226152,46.6416857 67.4809018,45.2944474 67.4809018,43.6325449 C67.4809018,41.9706423 68.8226152,40.6234041 70.4777025,40.6234041 C72.1327899,40.6234041 73.4745033,41.9706423 73.4745033,43.6325449 C73.4745033,45.2944474 72.1327899,46.6416857 70.4777025,46.6416857 Z" id="Shape" fill="#BD9F34"></path>
                        </g>
                    </g>
                </g>
            </g>
        </g>
    </g>
</svg>