<?xml version="1.0" encoding="UTF-8"?>
<svg width="31px" height="30px" viewBox="0 0 31 30" version="1.1" xmlns="http://www.w3.org/2000/svg" xmlns:xlink="http://www.w3.org/1999/xlink">
    <title>cart_product</title>
    <g id="Page-1" stroke="none" stroke-width="1" fill="none" fill-rule="evenodd">
        <g id="home-v2" transform="translate(-1651.000000, -2321.000000)" fill="#454F5B" fill-rule="nonzero">
            <g id="Rectangle-18-copy-18" transform="translate(-8.462793, -184.000000)">
                <g id="Group-6" transform="translate(166.441516, 2084.000000)">
                    <g id="item" transform="translate(1334.021277, 84.000000)">
                        <g id="cart" transform="translate(159.000000, 337.000000)">
                            <path d="M23.4793828,22.672221 C21.488417,22.6702905 19.8728578,24.3090668 19.870887,26.3325567 C19.8689197,28.3560465 21.4814235,29.9979971 23.4723893,30 C25.4633552,30.0019305 27.0789143,28.3631542 27.0808834,26.3396644 C27.0808834,26.3384913 27.0808834,26.3373181 27.0808834,26.336145 C27.0789822,24.3147944 25.4681759,22.6761561 23.4793828,22.672221 Z" id="Path"></path>
                            <path d="M29.8733822,5.12762801 C29.7871521,5.11065231 29.6994961,5.10202644 29.6116364,5.10188843 L7.66192205,5.10188843 L7.31428555,2.73819449 C7.09769171,1.16842513 5.77653721,0.000483048422 4.21685791,0 L1.390546,0 C0.622554506,0 0,0.632724426 0,1.41326167 C0,2.19379891 0.622554506,2.82652334 1.390546,2.82652334 L4.22032069,2.82652334 C4.39712645,2.82521221 4.54677309,2.95901662 4.56795719,3.13746851 L6.70938446,18.0544178 C7.00297434,19.9498998 8.60719458,21.348256 10.4951595,21.354401 L24.9603007,21.354401 C26.7779915,21.3568129 28.3460901,20.0584477 28.7113121,18.2487413 L30.9744122,6.78365601 C31.1203245,6.0173342 30.6273868,5.27592388 29.8733822,5.12762801 Z" id="Path"></path>
                            <path d="M14.6480577,26.1792233 C14.5633892,24.2150794 12.968471,22.6689104 11.0339961,22.6757195 L11.0339961,22.6757195 C9.04465981,22.7574463 7.4971342,24.4627452 7.57752514,26.4845789 C7.65465699,28.4245704 9.20741072,29.9665299 11.1174424,29.9999983 L11.2043516,29.9999983 C13.1934163,29.9113934 14.7351706,28.2007809 14.6480577,26.1792233 Z" id="Path"></path>
                        </g>
                    </g>
                </g>
            </g>
        </g>
    </g>
</svg>