<?xml version="1.0" encoding="UTF-8"?>
<svg width="24px" height="23px" viewBox="0 0 24 23" version="1.1" xmlns="http://www.w3.org/2000/svg" xmlns:xlink="http://www.w3.org/1999/xlink">
    <title>cart</title>
    <g id="Page-1" stroke="none" stroke-width="1" fill="none" fill-rule="evenodd">
        <g id="home-v2" transform="translate(-387.000000, -92.000000)" fill="#FFFFFF" fill-rule="nonzero">
            <g id="Rectangle-18-copy-18" transform="translate(-8.462793, -184.000000)">
                <g id="Group-33" transform="translate(7.000000, 0.000000)">
                    <g id="Group-3" transform="translate(388.462793, 271.000000)">
                        <g id="cart" transform="translate(0.000000, 5.000000)">
                            <path d="M18.1775867,17.3820361 C16.6361938,17.3805561 15.3854383,18.6369512 15.3839125,20.1882934 C15.3823895,21.7396356 16.6307795,22.9984644 18.1721724,23 C19.7135653,23.00148 20.9643208,21.7450849 20.9658452,20.1937427 C20.9658452,20.1928433 20.9658452,20.1919439 20.9658452,20.1910445 C20.9643733,18.6413424 19.7172975,17.385053 18.1775867,17.3820361 Z" id="Path"></path>
                            <path d="M23.1277798,3.93118147 C23.0610209,3.91816677 22.9931582,3.91155361 22.9251378,3.9114478 L5.93181062,3.9114478 L5.66267268,2.09928244 C5.49498713,0.895792597 4.47215784,0.000370337124 3.26466419,0 L1.07655174,0 C0.481977682,0 0,0.485088727 0,1.08350061 C0,1.6819125 0.481977682,2.16700123 1.07655174,2.16700123 L3.26734505,2.16700123 C3.40422693,2.16599603 3.5200824,2.26857941 3.53648299,2.40539252 L5.19436216,13.8417203 C5.42165756,15.2949232 6.66363451,16.3669963 8.12528479,16.3717074 L19.3241038,16.3717074 C20.7313483,16.3735565 21.9453601,15.3781433 22.2281126,13.9907017 L23.9801901,5.20080294 C24.0931544,4.61328955 23.7115252,4.04487497 23.1277798,3.93118147 Z" id="Path"></path>
                            <path d="M11.3404318,20.0707379 C11.274882,18.5648942 10.0401066,17.379498 8.54244859,17.3847183 L8.54244859,17.3847183 C7.00231727,17.4473755 5.80423293,18.7547713 5.86647108,20.3048438 C5.92618605,21.7921706 7.12831798,22.9743396 8.60705221,22.9999987 L8.6743367,22.9999987 C10.2142578,22.9320683 11.407874,21.6205987 11.3404318,20.0707379 Z" id="Path"></path>
                        </g>
                    </g>
                </g>
            </g>
        </g>
    </g>
</svg>