<?xml version="1.0" encoding="UTF-8"?>
<svg width="164px" height="100px" viewBox="0 0 164 100" version="1.1" xmlns="http://www.w3.org/2000/svg" xmlns:xlink="http://www.w3.org/1999/xlink">
    <title>delivery-van</title>
    <g id="Page-1" stroke="none" stroke-width="1" fill="none" fill-rule="evenodd">
        <g id="home-v2" transform="translate(-1286.000000, -1055.000000)" fill-rule="nonzero">
            <g id="Rectangle-18-copy-18" transform="translate(-8.462793, -184.000000)">
                <g id="Group-19" transform="translate(369.000000, 1189.000000)">
                    <g id="01-copy-2" transform="translate(816.021277, 0.000000)">
                        <g id="delivery-van" transform="translate(110.000000, 50.000000)">
                            <path d="M50.9377504,71.3309882 C43.027012,71.3309882 36.6161162,77.7458676 36.6161162,85.6652935 C36.6161162,93.5851206 43.027012,100 50.9377504,100 C58.8512938,100 65.2605868,93.5851206 65.2605868,85.6652935 C65.2605868,77.7458676 58.8512938,71.3309882 50.9377504,71.3309882 Z M50.9377504,91.8972689 C47.4988913,91.8972689 44.7123816,89.1075805 44.7123816,85.6652935 C44.7123816,82.2214022 47.4988913,79.4333182 50.9377504,79.4333182 C54.3770103,79.4333182 57.1655235,82.2214022 57.1655235,85.6652935 C57.1655235,89.1075805 54.3770103,91.8972689 50.9377504,91.8972689 Z" id="Shape" fill="#BD9F34"></path>
                            <path d="M126.458014,71.3309882 C118.547276,71.3309882 112.136781,77.7458676 112.136781,85.6652935 C112.136781,93.5851206 118.547276,100 126.458014,100 C134.371958,100 140.780851,93.5851206 140.780851,85.6652935 C140.780851,77.7458676 134.371958,71.3309882 126.458014,71.3309882 Z M126.458014,91.8972689 C123.019155,91.8972689 120.233046,89.1075805 120.233046,85.6652935 C120.233046,82.2214022 123.019155,79.4333182 126.458014,79.4333182 C129.897675,79.4333182 132.686188,82.2214022 132.686188,85.6652935 C132.686188,89.1075805 129.897675,91.8972689 126.458014,91.8972689 Z" id="Shape" fill="#BD9F34"></path>
                            <path d="M67.0497392,27.2843958 C67.0497392,29.2931319 65.4076459,30.9364609 63.4013108,30.9364609 L13.0546017,30.9364609 C11.0478659,30.9364609 9.40657404,29.2931319 9.40657404,27.2843958 L9.40657404,25.0931567 C9.40657404,23.0848218 11.0482666,21.4414928 13.0546017,21.4414928 L63.4013108,21.4414928 C65.4080466,21.4414928 67.0497392,23.0848218 67.0497392,25.0931567 L67.0497392,27.2843958 L67.0497392,27.2843958 Z" id="Path" fill="#454F5B"></path>
                            <path d="M154.521461,48.6661238 C149.270209,47.2995576 146.265314,46.4403897 144.203281,42.4542038 L137.308332,28.4800911 C135.245498,24.4939052 129.888058,21.2321157 125.404558,21.2321157 L115.973942,21.2321157 C115.973942,21.2321157 114.705307,21.2585887 114.705307,19.9806667 C114.705307,17.0505914 114.705307,8.26076667 114.705307,8.26076667 C114.705307,3.71744528 112.136781,0 106.673154,0 L29.8145321,0 C21.9923497,0 18.2786062,3.71784638 18.2786062,8.26076667 L18.2786062,15.6054085 C18.2786062,15.6054085 18.2786062,17.7898288 20.3907277,17.7898288 C31.1432733,17.7898288 63.4013108,17.7898288 63.4013108,17.7898288 C67.4248,17.7898288 70.6981676,21.0660581 70.6981676,25.0935578 L70.6981676,27.2847969 C70.6981676,31.3122967 67.4248,34.588526 63.4013108,34.588526 L20.3907277,34.588526 C20.3907277,34.588526 18.2786062,34.4128418 18.2786062,36.6951318 C18.2786062,37.8286558 18.2786062,38.5895528 18.2786062,39.2208928 C18.2786062,41.2296289 21.0290524,41.2284255 21.0290524,41.2284255 L49.9816659,41.2284255 C54.0051551,41.2284255 57.2785226,44.5050559 57.2785226,48.5321546 L57.2785226,50.7233937 C57.2785226,54.7508935 54.0051551,58.0271228 49.9816659,58.0271228 L21.4858573,58.0271228 C21.4858573,58.0271228 18.2786062,57.9677591 18.2786062,60.5240042 C18.2786062,64.9610326 18.2786062,78.2713157 18.2786062,78.2713157 C18.2786062,82.814236 21.9923497,86.5320824 26.5311469,86.5320824 C26.5311469,86.5320824 29.9499707,86.5320824 31.0895787,86.5320824 C32.1234002,86.5320824 32.2756685,85.9556939 32.2756685,85.6660958 C32.2756685,75.366109 40.6480203,66.9874173 50.9381511,66.9874173 C61.2290834,66.9874173 69.6010345,75.3669112 69.6010345,85.6660958 C69.6010345,85.9568972 69.518489,86.5320824 70.309082,86.5320824 C79.345003,86.5320824 107.0963,86.5320824 107.0963,86.5320824 C107.825585,86.5320824 107.795932,85.9167867 107.795932,85.6660958 C107.795932,75.366109 116.167884,66.9874173 126.458415,66.9874173 C136.748947,66.9874173 145.120898,75.3669112 145.120898,85.6660958 C145.120898,85.9568972 145.113685,86.5320824 145.570089,86.5320824 C149.713389,86.5320824 154.844831,86.5320824 154.844831,86.5320824 C159.330735,86.5320824 163,82.8591598 163,78.3691855 L163,62.8608445 C163,49.80045 158.880742,49.80045 154.521461,48.6661238 Z M139.003319,47.9397219 C139.003319,47.9397219 121.685205,47.9397219 115.79122,47.9397219 C114.83233,47.9397219 114.704906,47.0051462 114.704906,47.0051462 L114.704906,27.6498029 C114.704906,27.6498029 114.650811,26.9065545 115.88218,26.9065545 C117.538298,26.9065545 122.50545,26.9065545 122.50545,26.9065545 C126.496081,26.9065545 131.26288,29.8089535 133.097713,33.3559289 L139.233324,45.7901978 C139.491779,46.2907774 139.767866,46.7352022 140.063587,47.1334999 C140.281571,47.4255047 139.916127,47.9397219 139.003319,47.9397219 Z" id="Shape" fill="#BD9F34"></path>
                            <path d="M53.6296935,50.7233937 C53.6296935,52.7321297 51.9880009,54.3754588 49.9816659,54.3754588 L3.64802769,54.3754588 C1.6412919,54.3754588 0,52.7321297 0,50.7233937 L0,48.5321546 C0,46.5238196 1.6416926,44.8804906 3.64802769,44.8804906 L49.9816659,44.8804906 C51.9884017,44.8804906 53.6296935,46.5238196 53.6296935,48.5321546 L53.6296935,50.7233937 Z" id="Path" fill="#454F5B"></path>
                        </g>
                    </g>
                </g>
            </g>
        </g>
    </g>
</svg>