<?xml version="1.0" encoding="UTF-8"?>
<svg width="103px" height="102px" viewBox="0 0 103 102" version="1.1" xmlns="http://www.w3.org/2000/svg" xmlns:xlink="http://www.w3.org/1999/xlink">
    <title>design</title>
    <g id="Page-1" stroke="none" stroke-width="1" fill="none" fill-rule="evenodd">
        <g id="home-v2" transform="translate(-908.000000, -1059.000000)" fill-rule="nonzero">
            <g id="Rectangle-18-copy-18" transform="translate(-8.462793, -184.000000)">
                <g id="Group-19" transform="translate(369.000000, 1189.000000)">
                    <g id="01-copy-2" transform="translate(408.000000, 0.000000)">
                        <g id="design" transform="translate(140.000000, 54.000000)">
                            <path d="M4.5407841,19.0813338 C5.43925891,22.6333972 7.28222796,25.8806565 9.87226587,28.4704952 L12.243562,30.8113109 L30.8433851,12.2126832 L28.4722881,9.87166822 C25.880258,7.28182953 22.6347917,5.43905969 19.0825291,4.54058488 L1.24152883,0.0302811909 C0.900865428,-0.0553827043 0.540280195,0.0442264761 0.291257244,0.291257244 C0.0442264761,0.540280195 -0.0553827043,0.900865428 0.0302811909,1.24152883 L4.5407841,19.0813338 Z" id="Path" fill="#454F5B"></path>
                            <polygon id="Path" fill="#454F5B" points="25.5475634 43.9437853 44.1457927 25.3467513 35.0964979 16.4118078 16.4970732 35.0100371"></polygon>
                            <polygon id="Path" fill="#454F5B" transform="translate(72.917614, 72.925153) rotate(-45.000000) translate(-72.917614, -72.925153) " points="59.7687978 65.0435718 86.0664308 65.0435718 86.0664308 80.8067344 59.7687978 80.8067344"></polygon>
                            <path d="M92.0335038,73.429298 L73.43388,92.0277265 L79.5550634,98.1491091 C82.0395155,100.63137 85.3427552,102 88.8551741,102 C92.367593,102 95.6708327,100.63137 98.1552849,98.1491091 C103.281572,93.0212285 103.281572,84.6779635 98.1552849,79.5502821 L92.0335038,73.429298 Z" id="Path" fill="#454F5B"></path>
                            <path d="M46.0102773,54.7627368 C47.1774977,53.5957156 49.0696737,53.5957156 50.2364956,54.7627368 L60.5301083,65.0557518 L65.0601346,60.526124 L59.1843883,54.6509753 C58.0171679,53.4841534 58.0171679,51.5921766 59.1843883,50.4249562 C60.3514095,49.2581343 62.2435855,49.2577358 63.4106066,50.4249562 L69.286353,56.3001049 L73.8960666,51.6905904 L63.6024539,41.3975754 C62.4352335,40.2307535 62.4352335,38.3385775 63.6024539,37.1715563 C64.7694751,36.0047344 66.6616511,36.0043359 67.8286722,37.1715563 L78.1222849,47.4647706 L82.7321978,42.8552561 L76.8564515,36.9801075 C75.6892311,35.8132855 75.6892311,33.9213087 76.8564515,32.7540884 C78.0234726,31.5872664 79.9156486,31.586868 81.0826698,32.7540884 L86.9584161,38.6292371 L91.5681297,34.0197226 L81.274517,23.7265083 C80.1072967,22.5596864 80.1072967,20.6675104 81.274517,19.5004893 C82.4417374,18.3334681 84.3339134,18.3334681 85.5007354,19.5004893 L95.7943481,29.7937035 L100.021762,25.5597157 C101.297357,24.2843198 101.999602,22.5883739 101.999602,20.7846508 C101.999602,18.9809278 101.296958,17.2853803 100.021762,16.0097851 L85.9886211,1.97803911 C84.713026,0.702443941 83.0172793,-7.10542736e-15 81.2135562,-7.10542736e-15 C79.4098332,-7.10542736e-15 77.7138873,0.702244722 76.4382921,1.97783989 L1.97783989,76.4400851 C0.702443941,77.7152818 0,79.4112277 0,81.2147515 C0,83.0184746 0.702443941,84.714022 1.97783989,85.9896172 L16.0111797,100.021762 C17.2865756,101.297158 18.9823223,101.999801 20.7862446,101.999801 C22.5901668,101.999801 24.2859135,101.297357 25.5613095,100.021961 L29.7954965,95.7883715 L23.9199494,89.9132228 C22.7529282,88.7464009 22.7529282,86.8542249 23.9199494,85.6872037 C25.0869705,84.5203818 26.9791465,84.5203818 28.1461677,85.6872037 L34.0217148,91.5623524 L38.6314285,86.952838 L28.3378157,76.6600221 C27.1707946,75.4932002 27.1707946,73.6010242 28.3378157,72.4340031 C29.5048369,71.2671811 31.3970129,71.2671811 32.5640341,72.4340031 L42.8576468,82.7268189 L47.4675596,78.1173045 L41.5918133,72.2421558 C40.4247921,71.0753338 40.4247921,69.1833571 41.5918133,68.0161367 C42.7590337,66.8493147 44.6512097,66.8489163 45.8182308,68.0161367 L51.6939772,73.8912854 L56.3036908,69.2817709 L46.0100781,58.9887559 C44.8430569,57.8219339 44.8430569,55.9297579 46.0102773,54.7627368 Z" id="Path" fill="#BD9F34"></path>
                        </g>
                    </g>
                </g>
            </g>
        </g>
    </g>
</svg>