<?xml version="1.0" encoding="UTF-8"?>
<svg width="20px" height="23px" viewBox="0 0 20 23" version="1.1" xmlns="http://www.w3.org/2000/svg" xmlns:xlink="http://www.w3.org/1999/xlink">
    <title>exchange</title>
    <g id="Page-1" stroke="none" stroke-width="1" fill="none" fill-rule="evenodd">
        <g id="home-v2" transform="translate(-500.000000, -18.000000)" fill="#9D9B90" fill-rule="nonzero">
            <g id="Rectangle-18-copy-18" transform="translate(-8.462793, -184.000000)">
                <g id="Group-33" transform="translate(7.000000, 0.000000)">
                    <g id="Group-3" transform="translate(390.462793, 201.000000)">
                        <g id="Group-2" transform="translate(111.000000, 0.000000)">
                            <g id="exchange" transform="translate(0.000000, 1.000000)">
                                <path d="M10.5242515,9.14247893 L10.5242515,10.2988663 C10.5242515,10.6661377 10.5971878,10.9742737 10.7411411,11.214325 C10.9397092,11.5456238 11.2656542,11.7354889 11.6357449,11.7354889 C11.9983325,11.7354889 12.3586518,11.5579071 12.7065824,11.2080078 L16.5045046,7.38859556 C17.3383863,6.54999543 17.3383863,5.18549348 16.5045046,4.34689331 L12.7065824,0.527481102 C12.3586518,0.177406322 11.9983325,0 11.6357449,0 C11.082441,0 10.5242515,0.44430542 10.5242515,1.43662263 L10.5242515,2.48684692 C5.13220008,2.80709075 0.668428823,6.96850586 0.00502256277,12.4168625 C-0.0321435304,12.721138 0.139902358,13.0124283 0.423446614,13.1252594 C0.503711441,13.157196 0.587291565,13.1726379 0.669824733,13.1726379 C0.878862237,13.1726379 1.08161819,13.0741959 1.21073987,12.8967896 C2.99017615,10.4517059 5.84725501,8.99192048 8.85334724,8.99192048 C9.41031534,8.99192048 9.97042422,9.04245759 10.5242515,9.14247893 L10.5242515,9.14247893 Z" id="Path"></path>
                                <path d="M19.576379,9.87474058 C19.2928348,9.76173403 18.9693327,9.85578921 18.7890858,10.1033859 C17.009824,12.5482941 14.1527452,14.0080795 11.1466529,14.0080795 C10.5896848,14.0080795 10.0295759,13.9575424 9.47574859,13.8575211 L9.47574859,12.7011337 C9.47574859,11.7088166 8.91738458,11.2645111 8.36425526,11.2645111 C8.00166761,11.2645111 7.64134834,11.4420929 7.29324331,11.7921677 L3.4953211,15.6114044 C2.66161386,16.4500046 2.66161386,17.8145065 3.49549557,18.6532822 L7.29324331,22.4725189 C7.64134834,22.8225937 8.00166761,23 8.36425526,23 C8.91738458,23 9.47574859,22.5556946 9.47574859,21.5633774 L9.47574859,20.5131531 C14.8679745,20.1929093 19.3315714,16.0314941 19.9949776,10.583313 C20.0321437,10.278862 19.8600978,9.98757171 19.576379,9.87474058 L19.576379,9.87474058 Z" id="Path"></path>
                            </g>
                        </g>
                    </g>
                </g>
            </g>
        </g>
    </g>
</svg>