<?xml version="1.0" encoding="UTF-8"?>
<svg width="30px" height="27px" viewBox="0 0 30 27" version="1.1" xmlns="http://www.w3.org/2000/svg" xmlns:xlink="http://www.w3.org/1999/xlink">
    <title>fav</title>
    <g id="Page-1" stroke="none" stroke-width="1" fill="none" fill-rule="evenodd">
        <g id="home-v2" transform="translate(-1710.000000, -2322.000000)" fill-rule="nonzero" stroke="#454F5B" stroke-width="2">
            <g id="Rectangle-18-copy-18" transform="translate(-8.462793, -184.000000)">
                <g id="Group-6" transform="translate(166.441516, 2084.000000)">
                    <g id="item" transform="translate(1334.021277, 84.000000)">
                        <g id="fav" transform="translate(220.021277, 340.000000)">
                            <path d="M18.2075826,-1 C20.2000052,-1 22.1079789,-0.151411251 23.5701,1.41377989 C25.1219404,3.07495803 26.0142583,5.41939469 25.9999817,7.8535525 C25.9881771,9.80605763 25.280646,11.908982 23.8469195,14.0909902 C22.79538,15.6913801 21.3431153,17.3542993 19.5245284,19.0287996 C16.4955886,21.8176436 13.5193631,23.6675347 13.3941708,23.7449572 C11.8597055,23.8107838 8.66542265,21.9845247 5.44604775,19.0308945 C3.61941815,17.3550914 2.16452626,15.6905013 1.11572957,14.0885339 C-0.317135446,11.9000066 -1.01144297,9.790617 -0.9999819,7.83162147 C-0.985975782,5.50372815 -0.193465044,3.31908137 1.21467579,1.67336692 C2.69899395,-0.0613155836 4.68454674,-1 6.79248544,-1 C8.1429949,-1 9.43727094,-0.603783534 10.5728836,0.112725733 C11.2873123,0.563491028 11.9390306,1.14169065 12.5001284,1.8271715 C13.0611778,1.14158916 13.712845,0.563454049 14.4272111,0.112728193 C15.5628176,-0.603777182 16.8570842,-1 18.2075826,-1 Z" id="Path"></path>
                        </g>
                    </g>
                </g>
            </g>
        </g>
    </g>
</svg>