<?xml version="1.0" encoding="UTF-8"?>
<svg width="25px" height="23px" viewBox="0 0 25 23" version="1.1" xmlns="http://www.w3.org/2000/svg" xmlns:xlink="http://www.w3.org/1999/xlink">
    <title>heart</title>
    <g id="Page-1" stroke="none" stroke-width="1" fill="none" fill-rule="evenodd">
        <g id="home-v2" transform="translate(-596.000000, -105.000000)" fill="#FFFFFF" fill-rule="nonzero">
            <g id="Rectangle-18-copy-18" transform="translate(-8.462793, -184.000000)">
                <g id="Group-33" transform="translate(7.000000, 0.000000)">
                    <g id="Group-3" transform="translate(388.462793, 271.000000)">
                        <g id="Group-4" transform="translate(209.000000, 13.000000)">
                            <g id="heart" transform="translate(0.000000, 5.000000)">
                                <path d="M12.4999852,23 C12.3735208,23 12.2471052,22.9652517 12.1338243,22.8956512 C12.0107779,22.8201295 9.08739935,21.0145682 6.1220776,18.2940203 C4.36456417,16.6816263 2.96163934,15.0823734 1.9523655,13.5407745 C0.646315341,11.5459415 -0.0104694908,9.62714961 0,7.83763801 C0.0125284764,5.7553369 0.713649092,3.7970701 1.97448456,2.32351354 C3.25660902,0.825129344 4.96763825,0 6.79248544,0 C9.13119803,0 11.269423,1.39356794 12.500034,3.60114992 C13.730645,1.39361988 15.86887,0 18.2075826,0 C19.9316,0 21.5764674,0.744517437 22.8393536,2.09642897 C24.2252863,3.58001007 25.0127348,5.67623128 25,7.84750674 C24.9891997,9.6339019 24.3201102,11.5497851 23.0111792,13.5418653 C21.9987804,15.082685 20.5978087,16.6812108 18.84718,18.2931373 C15.892698,21.0134255 12.9903155,22.8189349 12.8681968,22.8944566 C12.7543788,22.9647842 12.6271332,23 12.4999852,23 L12.4999852,23 Z" id="Path"></path>
                            </g>
                        </g>
                    </g>
                </g>
            </g>
        </g>
    </g>
</svg>