<?xml version="1.0" encoding="UTF-8"?>
<svg width="277px" height="60px" viewBox="0 0 277 60" version="1.1" xmlns="http://www.w3.org/2000/svg" xmlns:xlink="http://www.w3.org/1999/xlink">
    <title>logo</title>
    <defs>
        <polygon id="path-1" points="0 0 18.9239127 0 18.9239127 51.1737156 0 51.1737156"></polygon>
        <polygon id="path-3" points="0 0 9.78077642 0 9.78077642 9.4215771 0 9.4215771"></polygon>
    </defs>
    <g id="Page-1" stroke="none" stroke-width="1" fill="none" fill-rule="evenodd">
        <g id="home-v2" transform="translate(-1405.000000, -81.000000)">
            <g id="Rectangle-18-copy-18" transform="translate(-8.462793, -184.000000)">
                <g id="Group-33" transform="translate(7.000000, 0.000000)">
                    <g id="logo" transform="translate(1406.462793, 265.000000)">
                        <g id="Group-10" transform="translate(230.000000, 0.000000)">
                            <path d="M42.7840198,30.2304397 C40.0245486,20.9909396 38.3401052,14.053132 43.2078294,5.53224177 C37.0003272,13.3965809 36.5248563,21.5924575 39.2485833,31.6601877 C41.429867,39.7211298 45.8930031,51.7765232 43.0580778,60 C50.5308402,51.8661264 45.5904157,39.6267314 42.7840198,30.2304397" id="Fill-1" fill="#BD9F34"></path>
                            <path d="M33.1075908,51.2446137 C30.726877,52.6388996 27.9316615,52.6349408 25.7272459,51.4525354 C26.7642713,49.7942351 27.9567211,47.3780155 28.7349445,45.8134445 C29.8935776,43.4837057 31.746223,43.2199143 33.413648,44.1856438 C34.3166185,44.775341 34.9856813,45.7050509 35.2177164,46.8090603 C35.5910764,48.5803823 34.6764848,50.3253864 33.1075908,51.2446137 M22.7294609,28.9843252 C21.9746448,25.0673776 25.5154788,21.8269424 27.6911447,18.9607553 C30.0136432,15.902203 31.7669867,12.5047531 31.3050094,8.61752455 C35.3378371,16.6248831 28.341647,25.3764445 24.9392189,32.3426329 C23.9338622,31.4390736 22.98617,30.3180021 22.7294609,28.9843252 M39.3224732,41.9136704 C39.3224732,41.9136704 39.3229138,41.9133916 39.3231892,41.9131128 C39.3206006,41.9098231 39.3174062,41.9068679 39.3143219,41.9034109 C38.3874485,40.7000405 37.2000657,39.791686 35.8847414,39.2609251 C31.1468313,37.1794769 26.5760216,39.4947744 24.1223872,45.6883792 C23.7689097,46.5815117 23.3152489,47.5282277 22.8152693,48.5055549 C22.7434502,48.3690035 22.674385,48.2298314 22.6103316,48.0861986 C21.6122449,45.8576607 22.7823889,43.1053315 23.6284109,40.9628282 C24.4498689,38.8817703 25.4813867,36.8764876 26.6368255,34.9474262 C27.8904096,35.4340825 29.9859951,35.9892655 31.5971324,36.3429946 C31.9094131,36.4567968 32.244275,36.527944 32.5948886,36.5477939 C34.4456614,36.6517269 36.033777,35.2959698 36.1422766,33.5196297 C36.2507763,31.7432895 34.8386285,30.2188085 32.9874701,30.1147083 C31.1368625,30.0107752 29.548747,31.3663651 29.4405227,33.1425937 C29.3824176,34.0904249 29.7604039,34.9640421 30.4039666,35.5909299 C29.2269381,35.0866541 27.9909232,34.5392215 27.1992062,34.032102 C28.1337352,32.5436407 29.121027,31.0864039 30.0382622,29.5876274 C31.7373007,26.8103186 33.1123273,23.8450495 33.7242213,20.6624354 C34.8424287,14.843692 33.0063612,9.2006423 29.5686845,4.40188102 C33.8347037,12.0284121 22.5956814,17.3114878 20.9205458,23.9122379 C20.4501971,25.766249 20.4350512,27.7653984 21.0233176,29.5966602 C21.3183596,30.5141032 21.7710289,31.3852671 22.3803894,32.1482603 C22.7042361,32.5536214 23.0704913,32.9363447 23.4787144,33.2647038 C23.7227009,33.4610837 23.9823841,33.6383943 24.2504389,33.8027691 C24.0700651,34.1995434 23.8949786,34.5984365 23.72562,34.9992812 C21.8675771,39.3965287 20.2044481,45.1334193 22.1122246,49.800034 C19.2259134,55.8452666 11.1048518,59.0059677 4.65507038,59.5798854 C14.4496153,60.9749519 21.517349,58.4595387 24.4642438,53.2469969 C24.7510243,53.5071083 25.0391818,53.7463661 25.3083931,53.9574103 C26.5090492,54.8974354 27.9308904,55.5566071 29.4621125,55.8057899 C31.5829779,56.1510995 33.7781407,55.722097 35.7127392,54.8616387 C40.2366241,52.8495535 42.3944454,46.3701887 39.6107408,42.3080471 C39.5180479,42.1728338 39.4214447,42.0423042 39.3224732,41.9136704" id="Fill-3" fill="#BD9F34"></path>
                            <path d="M35.7769963,6.88110162 C35.9360006,6.82991572 36.1099305,6.77917589 36.2997223,6.72821303 C36.488688,6.67719441 36.6780391,6.63364737 36.867886,6.59773918 C37.0569067,6.56082735 37.2196562,6.54309628 37.3559141,6.54309628 L40.6053963,6.54309628 L41.6511787,4.7764023 C40.6812359,4.89293663 39.8783384,4.83104519 39.2424313,4.59095101 C38.6061386,4.35119137 37.8563895,3.91148334 36.9925229,3.27149238 L37.8790808,1.87586826 C38.2116295,2.48619593 39.1207685,3.00251552 40.6053963,3.42415794 L41.4467918,2.0284223 C39.9922355,1.63571831 38.9390728,0.959819165 38.2878546,0 C36.7577891,2.21019356 35.9926187,3.59862489 35.9926187,4.16562856 C35.9926187,4.29660423 36.0117851,4.40549971 36.0498977,4.4929841 C36.0872943,4.57996667 36.1522839,4.65312124 36.2427738,4.71083083 L36.4702926,4.88535354 C36.5306558,4.92917937 36.6408078,4.98025375 36.7993164,5.03801909 C36.9587613,5.09634202 37.0529963,5.14000058 37.0837838,5.16893901 C36.4017781,5.43050005 35.871782,5.8887755 35.4929695,6.54309628 C35.4625125,6.55737035 35.4171299,6.62651033 35.356271,6.75023746 C35.2958526,6.87351852 35.250415,6.95726712 35.2204536,7.00070264 L35.2204536,7.08818703 L35.3793478,7.04475151 C35.4852038,6.98631707 35.6180471,6.93172993 35.7769963,6.88110162" id="Fill-5" fill="#BD9F34"></path>
                            <g id="Group-9" transform="translate(0.000000, 5.357897)">
                                <mask id="mask-2" fill="#BD9F34">
                                    <use xlink:href="#path-1"></use>
                                </mask>
                                <g id="Clip-8"></g>
                                <path d="M15.2215105,47.9374305 C15.2548315,47.8932144 15.2850131,47.8497789 15.3176731,47.8057858 C22.1168565,39.6772092 17.7367198,28.5930654 14.8597165,19.4390424 C13.2384452,14.2806974 11.365642,9.70981928 12.5333626,0 C8.70508719,10.0091285 9.20528713,13.1754612 11.2720679,20.8099099 C13.0556481,27.3980587 16.1347251,35.8386016 15.7359751,43.4907256 C15.6397574,44.2137961 15.2667829,44.6112953 14.9212914,45.1014643 C12.0998046,49.1049485 8.06653642,47.6537336 6.53531436,46.6596232 C5.43021506,45.94224 4.13675595,43.7886967 5.35889168,41.5660133 C6.8892876,38.7824039 9.92006304,39.928901 10.4978099,40.3620296 C13.3766308,42.5196991 11.7094812,45.4537995 11.7094812,45.4537995 C14.0606743,41.5001073 11.7276563,37.9237856 9.97205476,36.7032975 C7.35908561,34.8869789 3.08056412,34.6831832 0.710424911,39.278093 C-1.33085569,43.2345174 1.33256304,48.8779017 4.8179906,50.3243771 C6.40693228,50.9833258 11.6252701,52.7049673 15.2215105,47.9374305" id="Fill-7" fill="#BD9F34" mask="url(#mask-2)"></path>
                            </g>
                        </g>
                        <g id="Group-106" transform="translate(0.000000, 13.000000)">
                            <path d="M4.30121288,16.6686405 C3.12209281,16.6686405 2.53253277,16.0992403 2.53253277,14.9707092 C2.53253277,13.7801356 3.76337426,12.2479005 5.05619596,11.9475293 L5.14938,15.7369337 C5.14938,16.2235392 4.93212868,16.6686405 4.30121288,16.6686405 M6.31802755,10.0115903 C4.50809855,9.95981693 2.7807742,10.4670676 1.77754969,11.3057107 C0.732862557,12.1649989 0.133043728,13.6144394 0.0916879665,14.9914613 C0.0192352377,17.0516992 1.49831816,18.9049506 4.18740439,18.9049506 L5.1803701,18.9049506 C6.63872171,18.9049506 7.79711047,18.0973288 7.79711047,16.7307899 C7.79711047,16.6169741 7.78674482,15.9336511 7.77637916,14.6808211 L7.75575471,12.4756391 C7.75575471,11.5334493 7.85909068,10.8915237 8.07634201,10.5602383 C7.5902248,10.1979317 7.01103042,10.0115903 6.31802755,10.0115903" id="Fill-1" fill="#BD9F34"></path>
                            <path d="M6.40079251,8.64496582 C7.1765069,8.64496582 7.76606693,8.06508265 7.76606693,7.33009331 C7.76606693,6.71929588 7.27994973,6.25333553 6.60767817,6.25333553 C5.87331954,6.25333553 5.28375951,6.81235959 5.28375951,7.5474559 C5.28375951,8.1997576 5.7388866,8.64496582 6.40079251,8.64496582" id="Fill-3" fill="#BD9F34"></path>
                            <path d="M3.27725706,8.64496582 C4.05297145,8.64496582 4.64253149,8.06508265 4.64253149,7.33009331 C4.64253149,6.71929588 4.15641428,6.25333553 3.48414273,6.25333553 C2.73941844,6.25333553 2.16022406,6.81235959 2.16022406,7.5474559 C2.16022406,8.1997576 2.61535116,8.64496582 3.27725706,8.64496582" id="Fill-5" fill="#BD9F34"></path>
                            <path d="M12.8031452,10.073697 C12.017172,10.073697 11.530948,10.6223449 11.530948,11.4092146 C11.530948,11.5645347 11.5516793,12.3617805 11.5826694,13.7800928 C11.6137663,15.198512 11.6240251,16.0475311 11.6240251,16.3270432 L11.6240251,17.1035368 C11.6343908,17.4658434 11.6447564,17.8592783 11.6447564,18.2630892 C11.6447564,19.9920417 11.2827065,20.6857407 10.3725592,20.6857407 C10.0416062,20.6857407 9.73127774,20.5615488 9.45204621,20.3026819 C9.09010315,20.7892874 8.90394879,21.2137435 8.90394879,21.5760502 C8.90394879,22.2801252 9.75200905,22.9012987 10.7966962,22.9012987 C13.9718996,22.9012987 14.1373227,21.6692208 14.2511312,17.1035368 C14.2408724,16.7826275 14.2303998,15.33308 14.2303998,12.7344632 C14.2303998,11.7405 14.3339495,11.0779292 14.551094,10.7362678 C14.1063326,10.2910595 13.5271382,10.073697 12.8031452,10.073697" id="Fill-7" fill="#BD9F34"></path>
                            <path d="M25.597517,20.0024606 C24.8527927,20.0024606 24.2735983,20.5718607 24.2735983,21.2862049 C24.2735983,21.9385066 24.7287254,22.3733387 25.3906313,22.3733387 C26.1663457,22.3733387 26.7455401,21.8142077 26.7455401,21.0791114 C26.7455401,20.4683139 26.2594229,20.0024606 25.597517,20.0024606" id="Fill-9" fill="#BD9F34"></path>
                            <path d="M38.5573546,8.65530979 C39.3434346,8.65530979 39.922629,8.09617877 39.922629,7.36108245 C39.922629,6.73990896 39.4365118,6.27405558 38.7642403,6.27405558 C38.0298816,6.27405558 37.4403216,6.85383177 37.4403216,7.56817594 C37.4403216,8.22047765 37.8954487,8.65530979 38.5573546,8.65530979" id="Fill-11" fill="#BD9F34"></path>
                            <path d="M41.68089,8.65530979 C42.4566044,8.65530979 43.0357988,8.09617877 43.0357988,7.36108245 C43.0357988,6.73990896 42.5600473,6.27405558 41.8877757,6.27405558 C41.1534171,6.27405558 40.563857,6.85383177 40.563857,7.56817594 C40.563857,8.22047765 41.0189841,8.65530979 41.68089,8.65530979" id="Fill-13" fill="#BD9F34"></path>
                            <path d="M53.6271482,4.58643618 C52.8410681,4.58643618 52.3549509,5.08341777 52.3549509,5.83915925 C52.3549509,5.99447936 52.3653166,7.55784266 52.3963067,10.5187661 L52.4480281,15.3951974 C52.4480281,16.2958829 52.2411424,16.6686726 51.6102266,16.6686726 L50.3069324,16.6686726 L49.8933748,16.6686726 L49.1071879,16.6686726 C48.745138,16.6686726 48.3211078,16.2235713 48.2797521,15.5194962 C48.2486551,9.95984902 48.2383963,7.17478389 48.2383963,7.16440782 C48.2383963,6.17055162 48.3520979,5.49760475 48.5693493,5.15594328 C48.0832321,4.77277753 47.493672,4.58643618 46.8214005,4.58643618 C46.0043303,4.58643618 45.5389444,5.08341777 45.5389444,5.83915925 L45.590559,10.5187661 C45.6215491,13.4799035 45.6320216,15.1053093 45.6320216,15.3951974 C45.6320216,16.2958829 45.4251359,16.6686726 44.7942201,16.6686726 L43.4909259,16.6686726 L43.0772614,16.6686726 L42.2910745,16.6686726 C41.9187658,16.6582965 41.4947357,16.2131952 41.4637456,15.4573468 L41.4326486,12.5998631 C41.4326486,11.6060069 41.5360914,10.9330601 41.7533428,10.5912916 C41.2672256,10.2082328 40.6776655,10.0115154 40.005394,10.0115154 C39.2089483,10.0115154 38.7228311,10.4981209 38.7228311,11.2746146 C38.7228311,11.4299347 38.7435624,12.0822364 38.7745525,13.2417888 C38.8055426,14.3909651 38.8159082,15.1053093 38.8159082,15.3849283 C38.8159082,16.2958829 38.6090226,16.6686726 37.9884724,16.6686726 L36.6747057,16.6686726 L36.261255,16.6686726 L33.4477808,16.6686726 C33.4684053,16.3063659 33.4684053,15.9543284 33.4374152,15.6333121 C32.6202382,15.9647045 30.6137892,15.1260614 28.6175989,13.8008128 C26.6317744,12.4755642 25.1010769,10.9537052 25.1010769,10.094417 C24.1805639,10.1357073 23.291041,10.8501585 23.0118095,11.6784255 C22.8877422,12.0614842 22.9187323,12.4238978 23.1048867,12.7862045 C23.3634938,13.27281 24.2736411,14.0079063 25.8456943,14.9914934 C27.2420657,15.8818029 28.2659147,16.4409339 28.9175618,16.6686726 L21.8119581,16.6686726 L21.1915148,16.6686726 L19.5675264,16.6686726 C18.9366107,16.6686726 18.7298318,16.2958829 18.7298318,15.3951974 C18.7298318,15.2917576 18.7298318,13.9147356 18.7400906,11.2642385 C18.7504563,8.62422438 18.7504563,7.2473094 18.7504563,7.15403175 C18.7504563,6.16017555 18.8538991,5.48712171 19.0607848,5.14556721 C18.5745607,4.76250844 17.9953664,4.56579102 17.312836,4.56579102 C16.526756,4.56579102 16.0406388,5.05228956 16.0406388,5.82889015 L16.0923602,10.6638171 C16.0819945,13.138242 16.0819945,15.1156853 16.0819945,16.6168992 C16.0819945,18.1388652 16.7749974,18.9049827 18.1712619,18.9049827 L21.1915148,18.9049827 L21.8119581,18.9049827 L30.4069035,18.9049827 C32.030785,18.9049827 32.5788824,18.801436 33.0649996,18.0249424 C33.2926166,18.6047186 33.8097239,18.8946067 34.6165353,18.9049827 L36.261255,18.9049827 L36.6747057,18.9049827 L39.3848438,18.9049827 C40.0777398,18.9049827 40.5948471,18.7082653 40.9465314,18.3252065 C41.2258698,18.7082653 41.6705244,18.9049827 42.2910745,18.9049827 L43.0772614,18.9049827 L43.4909259,18.9049827 L46.2008503,18.9049827 C46.8834875,18.9049827 47.4005948,18.7082653 47.7626448,18.3045614 C48.0315106,18.7082653 48.4555408,18.9049827 49.0347351,18.9049827 L49.8933748,18.9049827 L50.3069324,18.9049827 L53.0064911,18.9049827 C54.4028625,18.9049827 55.0958654,18.1388652 55.0958654,16.6066301 L55.0751341,11.9683136 C55.0647684,8.99690708 55.0647684,7.39214648 55.0647684,7.16440782 C55.0647684,6.17055162 55.1682113,5.49760475 55.3750969,5.15594328 C54.8889797,4.77277753 54.3097854,4.58643618 53.6271482,4.58643618" id="Fill-15" fill="#BD9F34"></path>
                            <path d="M65.5525895,21.2862049 C65.5525895,21.9385066 65.9973509,22.3733387 66.6696225,22.3733387 C67.4246055,22.3733387 68.0141656,21.8143146 68.0141656,21.0791114 C68.0141656,20.4683139 67.538414,20.0024606 66.8765081,20.0024606 C66.1317838,20.0024606 65.5525895,20.5718607 65.5525895,21.2862049" id="Fill-17" fill="#BD9F34"></path>
                            <path d="M77.498901,20.0024606 C76.7541767,20.0024606 76.1749823,20.5718607 76.1749823,21.2862049 C76.1749823,21.9385066 76.6300026,22.3837148 77.2816497,22.3837148 C78.0677297,22.3837148 78.6469241,21.8245837 78.6469241,21.0791114 C78.6469241,20.4683139 78.1711726,20.0024606 77.498901,20.0024606" id="Fill-19" fill="#BD9F34"></path>
                            <path d="M80.6016624,20.0024606 C79.8674106,20.0024606 79.2882162,20.5718607 79.2882162,21.2862049 C79.2882162,21.9385066 79.7432365,22.3837148 80.4051424,22.3837148 C81.1809636,22.3837148 81.760158,21.8245837 81.760158,21.0791114 C81.760158,20.4683139 81.2946653,20.0024606 80.6016624,20.0024606" id="Fill-21" fill="#BD9F34"></path>
                            <path d="M99.3121949,11.2642599 C100.087909,11.2642599 100.667104,10.6948598 100.667104,9.95987041 C100.667104,9.34896601 100.180986,8.88300566 99.5190806,8.88300566 C98.7743563,8.88300566 98.1951619,9.45251276 98.1951619,10.1668569 C98.1951619,10.8191586 98.650289,11.2642599 99.3121949,11.2642599" id="Fill-23" fill="#BD9F34"></path>
                            <path d="M109.117347,4.58643618 C108.331373,4.58643618 107.845256,5.08341777 107.845256,5.83915925 C107.845256,5.99447936 107.855515,7.55784266 107.886505,10.5187661 L107.938333,15.3951974 C107.938333,16.2958829 107.731448,16.6686726 107.100532,16.6686726 L105.797238,16.6686726 L105.38368,16.6686726 L102.570099,16.6686726 C102.590937,16.3063659 102.590937,15.9543284 102.55984,15.6333121 C101.74277,15.9647045 99.7362143,15.1260614 97.7400241,13.8008128 C95.7541995,12.4755642 94.2235021,10.9537052 94.2235021,10.094417 C93.3029891,10.1357073 92.4134662,10.8501585 92.1342347,11.6784255 C92.0101674,12.0614842 92.0411575,12.4238978 92.2273118,12.7862045 C92.4859189,13.27281 93.3960663,14.0079063 94.9682263,14.9914934 C96.3644909,15.8818029 97.3884467,16.4409339 98.0400938,16.6686726 L90.7273907,16.6686726 L90.31394,16.6686726 L89.5277531,16.6686726 C89.1657032,16.6686726 88.7415662,16.2235713 88.7002104,15.5194962 C88.6692203,9.95984902 88.6588546,7.17478389 88.6588546,7.16440782 C88.6588546,6.17055162 88.7726631,5.49760475 88.9898076,5.15594328 C88.5037973,4.77277753 87.9142372,4.58643618 87.2418588,4.58643618 C86.4247887,4.58643618 85.9594028,5.08341777 85.9594028,5.83915925 L86.0110173,10.5187661 C86.0421143,13.4799035 86.0524799,15.1053093 86.0524799,15.3951974 C86.0524799,16.2958829 85.8457011,16.6686726 85.2146785,16.6686726 L83.9113843,16.6686726 L83.4978266,16.6686726 L80.9740566,16.6686726 C80.601641,16.6686726 80.1879765,16.2027122 80.1569864,15.4677229 L80.1258895,12.6102392 C80.1258895,11.616276 80.2293323,10.9537052 80.436218,10.6120438 C79.9502076,10.228985 79.3709064,10.0322676 78.6882692,10.0322676 C77.902296,10.0322676 77.4264376,10.508497 77.4264376,11.2850976 C77.4264376,11.4403107 77.4368032,12.0925055 77.4677933,13.2417888 C77.4988903,14.3909651 77.5195148,15.1053093 77.5195148,15.3849283 C77.5195148,16.2958829 77.3023703,16.6686726 76.6818202,16.6686726 L75.3782054,16.6686726 L74.9648615,16.6686726 L72.1409148,16.6686726 C72.171905,16.3063659 72.171905,15.9543284 72.1409148,15.6333121 C71.313479,15.9647045 69.30703,15.1260614 67.3212054,13.8008128 C65.3353809,12.4755642 63.8046834,10.9537052 63.8046834,10.094417 C62.8634391,10.1357073 61.9946475,10.8501585 61.715416,11.6784255 C61.5809831,12.0614842 61.6119732,12.4238978 61.8084932,12.7862045 C62.3152348,13.7491464 66.3179809,16.2131952 67.6108026,16.6686726 L64.8492637,16.6686726 C62.3152348,17.010334 60.7328159,18.5944495 60.7328159,20.7892554 C60.7328159,23.5639444 63.1736607,25.6552036 66.1938068,25.6552036 C67.5073598,25.6552036 68.1072855,25.3446703 68.1072855,24.609574 C68.1072855,24.2576434 67.9107655,23.7606618 67.5279843,23.1188432 C67.104061,23.3568509 66.6592995,23.4707737 66.1834411,23.4707737 C64.7044651,23.4707737 63.6908749,22.5182079 63.6908749,21.151669 C63.6908749,19.8161513 64.7665522,18.9153588 66.7626355,18.9049827 L69.1001444,18.9049827 C70.7240259,18.9049827 71.2824889,18.801436 71.7686061,18.0249424 C71.9857506,18.6150946 72.5029648,18.9049827 73.3096693,18.9049827 L74.9648615,18.9049827 L75.3782054,18.9049827 L78.0780847,18.9049827 C78.7709807,18.9049827 79.2881949,18.7082653 79.6501379,18.3148305 C79.9191107,18.7082653 80.3638721,18.9049827 80.9740566,18.9049827 L83.4978266,18.9049827 L83.9113843,18.9049827 L86.6213087,18.9049827 C87.3039459,18.9049827 87.82116,18.7082653 88.1831031,18.3045614 C88.451969,18.7082653 88.876106,18.9049827 89.4553004,18.9049827 L90.31394,18.9049827 L90.7273907,18.9049827 L99.5293287,18.9049827 C101.15321,18.9049827 101.701414,18.801436 102.187425,18.0249424 C102.415042,18.6047186 102.932149,18.8946067 103.73896,18.9049827 L105.38368,18.9049827 L105.797238,18.9049827 L108.496796,18.9049827 C109.893168,18.9049827 110.586064,18.1388652 110.586064,16.6066301 L110.565439,11.9683136 C110.554967,8.99690708 110.554967,7.39214648 110.554967,7.16440782 C110.554967,6.17055162 110.658517,5.49760475 110.865295,5.15594328 C110.379285,4.77277753 109.800091,4.58643618 109.117347,4.58643618" id="Fill-25" fill="#BD9F34"></path>
                            <path d="M113.637392,4.56574823 C112.841054,4.56574823 112.354829,5.05235375 112.354829,5.82884736 C112.354829,5.99443658 112.375561,7.73387213 112.427282,11.036564 L112.489369,16.3063231 C112.489369,17.3001793 112.385926,17.9731262 112.179148,18.3148946 C112.665158,18.6979534 113.244352,18.8946708 113.92699,18.8946708 C114.712963,18.8946708 115.19908,18.4080653 115.19908,17.6315717 L115.1371,12.4238551 C115.085378,9.12116317 115.064647,7.37145852 115.064647,7.15409593 C115.064647,6.16013276 115.16809,5.48718589 115.374976,5.14552442 C114.899224,4.76246565 114.32003,4.56574823 113.637392,4.56574823" id="Fill-27" fill="#BD9F34"></path>
                            <path d="M129.131088,4.59682295 C128.334749,4.59682295 127.848632,5.0730524 127.848632,5.84954601 L127.900246,11.2538731 C127.931343,14.691133 127.941709,16.5547604 127.941709,16.8446485 C127.941709,18.9049934 127.414236,19.7332604 126.121307,19.9299778 C124.414714,20.1783617 122.92548,19.0809587 122.92548,17.0828702 C122.92548,16.6065338 123.039181,16.1613256 123.266691,15.7369765 C122.635882,15.3538107 122.139293,15.1570933 121.77735,15.1570933 C121.084347,15.1570933 120.743028,15.799019 120.743028,17.0724942 C120.743028,20.6650741 123.059913,22.9012773 126.483357,22.8909372 C128.934568,22.8806322 130.599805,20.9445862 130.599805,17.8902781 C130.599805,17.7764623 130.589439,16.0268646 130.579181,12.620626 L130.558342,7.17479459 C130.558342,6.18083141 130.661785,5.51826061 130.879037,5.17659914 C130.393026,4.79354037 129.803359,4.59682295 129.131088,4.59682295" id="Fill-29" fill="#BD9F34"></path>
                            <path d="M135.70939,8.76916842 C136.495363,8.76916842 137.074557,8.2100374 137.074557,7.47494109 C137.074557,6.86414366 136.588547,6.39829027 135.916275,6.39829027 C135.18181,6.39829027 134.602722,6.9676904 134.602722,7.68203458 C134.602722,8.31358414 135.057742,8.76916842 135.70939,8.76916842" id="Fill-31" fill="#BD9F34"></path>
                            <path d="M147.159015,13.8008235 C145.173191,12.4755749 143.642493,10.9537159 143.642493,10.0944277 C142.701249,10.135718 141.832457,10.8501692 141.553226,11.6784362 C141.429158,12.0614949 141.460149,12.4239085 141.635937,12.7862152 C142.163517,13.7491571 146.155791,16.2132059 147.448612,16.6686833 L140.146489,16.6686833 L139.732931,16.6686833 L137.05389,16.6686833 C137.043631,15.4055841 137.043631,14.0907116 137.043631,12.7344418 C137.043631,11.7404786 137.147074,11.0779078 137.364218,10.7363533 C136.919564,10.2910381 136.340263,10.0736756 135.61627,10.0736756 C134.840662,10.0736756 134.344072,10.6223235 134.344072,11.4093002 C134.344072,11.5645133 134.354438,12.3617591 134.385535,13.7801784 C134.426784,15.1984906 134.447515,16.0475098 134.447515,16.3270218 C134.447515,16.7826061 134.447515,17.041366 134.43715,17.1035154 C134.447515,17.465929 134.457881,17.8592569 134.457881,18.2630678 C134.457881,19.9920203 134.095938,20.6857193 133.185684,20.6857193 C132.844365,20.6857193 132.544402,20.5615274 132.265171,20.3026605 C131.892862,20.7892661 131.706601,21.2137221 131.706601,21.5761357 C131.706601,22.2802108 132.554768,22.9012773 133.599348,22.9012773 C136.774658,22.9012773 137.043631,20.923834 137.043631,18.6565026 C137.302238,18.8220918 137.64345,18.9049934 138.088211,18.9049934 L139.732931,18.9049934 L140.146489,18.9049934 L148.937954,18.9049934 C150.675644,18.9049934 151.213376,18.7808015 151.720331,17.8282356 C151.978831,17.3520062 152.061543,16.6169099 151.978831,15.6333228 C151.151396,15.9647151 149.155205,15.1260721 147.159015,13.8008235" id="Fill-33" fill="#BD9F34"></path>
                            <path d="M144.459585,20.0024606 C143.725226,20.0024606 143.146032,20.5718607 143.146032,21.2862049 C143.146032,21.9385066 143.590793,22.3733387 144.252699,22.3733387 C145.038779,22.3733387 145.617973,21.8142077 145.617973,21.0791114 C145.617973,20.4683139 145.131856,20.0024606 144.459585,20.0024606" id="Fill-35" fill="#BD9F34"></path>
                            <path d="M156.643676,2.5158222 L155.464556,2.5158222 C154.978439,2.43302759 154.740456,2.15340859 154.740456,1.66680307 C154.740456,1.18030453 155.071516,0.859288223 155.537008,0.859288223 C155.65071,0.859288223 155.774777,0.88004036 155.898952,0.921437664 L155.898952,0.931706763 C155.950673,1.16982149 155.867855,1.35626981 155.743787,1.35626981 C155.898952,1.45970958 156.116096,1.51148296 156.374703,1.51148296 C157.08833,1.51148296 156.922907,0.641818665 156.705656,0.40370394 C156.436683,0.13456798 156.033384,0 155.506018,0 C154.37862,0 153.644261,0.621173498 153.644261,1.53223509 C153.644261,1.8946487 153.747597,2.21555803 153.964848,2.5158222 L153.364923,2.5158222 C153.251221,2.50544613 153.147778,2.46404883 153.044335,2.38125422 C152.909902,2.5572195 152.83745,2.74356085 152.83745,2.94027828 C152.83745,3.19914514 153.023604,3.4682811 153.344298,3.49930233 L156.643676,3.49930233 C156.757377,3.49930233 156.871186,3.54080661 156.964263,3.63397728 C157.109062,3.458012 157.181408,3.21989727 157.181408,2.92990221 C157.181408,2.67114232 157.005619,2.53646737 156.643676,2.5158222" id="Fill-37" fill="#BD9F34"></path>
                            <path d="M154.78194,4.56574823 C153.985601,4.56574823 153.499377,5.05235375 153.499377,5.82884736 C153.499377,5.99443658 153.520108,7.73387213 153.57183,11.036564 L153.633917,16.3063231 C153.633917,17.3001793 153.530474,17.9731262 153.313223,18.3148946 C153.799447,18.6979534 154.378641,18.8946708 155.061171,18.8946708 C155.85751,18.8946708 156.343627,18.4080653 156.343627,17.6315717 C156.343627,17.4658755 156.323003,15.72644 156.271388,12.4238551 L156.209195,7.15409593 C156.209195,6.16013276 156.312637,5.48718589 156.529782,5.14552442 C156.043771,4.76246565 155.464577,4.56574823 154.78194,4.56574823" id="Fill-39" fill="#BD9F34"></path>
                            <path d="M166.066153,8.64496582 C166.852126,8.64496582 167.431321,8.06508265 167.431321,7.33009331 C167.431321,6.71929588 166.94531,6.25333553 166.273039,6.25333553 C165.528315,6.25333553 164.94912,6.81235959 164.94912,7.5474559 C164.94912,8.1997576 165.404247,8.64496582 166.066153,8.64496582" id="Fill-41" fill="#BD9F34"></path>
                            <path d="M169.200012,8.64496582 C169.975726,8.64496582 170.55492,8.06508265 170.55492,7.33009331 C170.55492,6.71929588 170.068803,6.25333553 169.396532,6.25333553 C168.662173,6.25333553 168.072613,6.81235959 168.072613,7.5474559 C168.072613,8.1997576 168.52774,8.64496582 169.200012,8.64496582" id="Fill-43" fill="#BD9F34"></path>
                            <path d="M166.748758,16.6686405 C165.569638,16.6686405 164.980078,16.0992403 164.980078,14.9707092 C164.980078,13.7801356 166.21092,12.2479005 167.493483,11.9475293 L167.58656,15.7369337 C167.58656,16.2235392 167.369308,16.6686405 166.748758,16.6686405 M201.118495,10.0528806 C200.384243,10.0528806 200.022193,10.4670676 200.022193,11.2954416 C200.022193,11.4506547 200.032559,12.1028495 200.063549,13.2521327 C200.105012,14.4116851 200.125636,15.1260293 200.125636,15.4055413 C200.125636,16.3063338 199.908491,16.6686405 199.287834,16.6686405 C198.636187,16.6686405 198.139811,16.6169741 198.08809,15.8404804 L198.0571,12.9518686 C198.0571,12.0822043 198.160436,11.4817829 198.377687,11.1400145 C197.953657,10.7673318 197.312376,10.5809904 196.474574,10.5809904 C195.740322,10.5809904 195.378272,10.9950704 195.378272,11.8129614 C195.378272,11.9683884 195.388638,12.5377886 195.419628,13.5108926 C195.450618,14.4944797 195.47135,15.1260293 195.47135,15.4055413 C195.47135,16.3063338 195.264571,16.6686405 194.643914,16.6686405 C194.323326,16.6686405 194.106075,16.6479953 193.992267,16.5962219 C193.682045,16.5030513 193.506256,16.2752056 193.454428,15.9231681 L193.433804,14.7015732 C193.423438,14.1010449 193.413179,13.697341 193.413179,13.4798714 C193.413179,12.7137539 193.516515,12.1649989 193.733766,11.8337135 C193.268274,11.4506547 192.689079,11.2539373 191.996183,11.2539373 C191.210103,11.2539373 190.734352,11.7301667 190.734352,12.5066604 C190.734352,12.6619805 190.744717,13.1071887 190.775707,13.8526611 C190.806698,14.6084026 190.827429,15.1260293 190.827429,15.4055413 C190.827429,16.3063338 190.610178,16.6686405 189.989627,16.6686405 L188.52059,16.6686405 L188.107246,16.6686405 L187.320845,16.6686405 C186.948429,16.6686405 186.503775,16.1820349 186.503775,15.3848962 C186.503775,15.3227467 186.493516,15.2710803 186.483044,15.229576 C186.462419,13.9458317 186.452053,13.1899833 186.452053,12.9518686 C186.452053,11.7405428 186.555496,10.9640492 186.762275,10.6223877 C186.338245,10.239329 185.707329,10.0528806 184.869528,10.0528806 C184.135276,10.0528806 183.762967,10.4670676 183.762967,11.2954416 C183.762967,11.4506547 183.783592,12.1028495 183.814582,13.2521327 C183.845679,14.4116851 183.856044,15.1260293 183.856044,15.4055413 C183.856044,16.3063338 183.649052,16.6686405 183.028609,16.6686405 C182.397586,16.6686405 181.880586,16.6169741 181.839123,15.8404804 L181.808133,12.9518686 C181.808133,12.0822043 181.911576,11.4817829 182.118354,11.1400145 C181.694324,10.7673318 181.063409,10.5809904 180.215348,10.5809904 C179.48099,10.5809904 179.119047,10.9950704 179.119047,11.8129614 C179.119047,11.9683884 179.139671,12.5377886 179.170661,13.5108926 C179.201651,14.4944797 179.212124,15.1260293 179.212124,15.4055413 C179.212124,16.3063338 179.015604,16.6686405 178.384688,16.6686405 C177.764031,16.6686405 177.288279,16.6272432 177.195202,15.9231681 L177.174578,14.7015732 C177.164212,14.1010449 177.164212,13.697341 177.164212,13.4798714 C177.164212,12.7137539 177.267655,12.1649989 177.474434,11.8337135 C177.009048,11.4506547 176.429853,11.2539373 175.736851,11.2539373 C174.961243,11.2539373 174.464653,11.7301667 174.464653,12.5066604 C174.464653,12.6619805 174.485385,13.1071887 174.52674,13.8526611 C174.557731,14.6084026 174.578569,15.1260293 174.578569,15.4055413 C174.578569,16.3063338 174.361211,16.6686405 173.740767,16.6686405 L172.271836,16.6686405 L171.858279,16.6686405 L171.061619,16.6686405 C170.678945,16.6582644 170.23429,16.1613898 170.23429,15.364251 C170.23429,15.3331228 170.23429,15.3021016 170.224031,15.2710803 L170.203193,12.4756391 C170.203193,11.5334493 170.306743,10.8915237 170.513522,10.5602383 C170.027511,10.1979317 169.44821,10.0115903 168.765573,10.0115903 C166.955644,9.95981693 165.218061,10.4670676 164.225095,11.3057107 C163.159784,12.1649989 162.580589,13.6144394 162.539127,14.9914613 C162.456522,17.0516992 163.935498,18.9049506 166.635057,18.9049506 L167.627916,18.9049506 C168.475976,18.9049506 169.148247,18.6668359 169.644837,18.1906065 C169.903337,18.6564598 170.379089,18.8946815 171.061619,18.9049506 L171.858279,18.9049506 L172.271836,18.9049506 L175.126559,18.9049506 C175.933371,18.9049506 176.522931,18.4908706 176.895239,17.6522276 C177.422819,18.4908706 178.384688,18.9049506 179.780952,18.9049506 C180.722197,18.9049506 181.34264,18.5322679 181.642603,17.7971716 C182.180442,18.5322679 183.11132,18.9049506 184.424873,18.9049506 C185.159125,18.9049506 185.696964,18.677212 186.048648,18.2217347 C186.358976,18.677212 186.783113,18.9049506 187.320845,18.9049506 L188.107246,18.9049506 L188.52059,18.9049506 L191.385892,18.9049506 C192.202962,18.9049506 192.792522,18.4908706 193.154572,17.6522276 C193.682045,18.4908706 194.633548,18.9049506 196.02992,18.9049506 C196.971057,18.9049506 197.601973,18.5322679 197.901829,17.7971716 C198.429409,18.5322679 199.360287,18.9049506 200.67384,18.9049506 C202.059739,18.9049506 202.752742,18.1388331 202.752742,16.6169741 C202.752742,16.5030513 202.742376,15.9231681 202.732011,14.8671624 L202.711279,12.9518686 C202.711279,11.7405428 202.814722,10.9640492 203.031974,10.6223877 C202.597578,10.239329 201.956296,10.0528806 201.118495,10.0528806" id="Fill-45" fill="#BD9F34"></path>
                            <path d="M207.086612,8.56212842 L210.365258,8.56212842 C210.47896,8.56212842 210.592875,8.61379482 210.696211,8.7069655 C210.830644,8.53100021 210.892731,8.29288549 210.892731,7.99272829 C210.892731,7.7442375 210.716943,7.60966952 210.365258,7.58881041 L209.20687,7.58881041 C208.720752,7.50612278 208.472511,7.22661075 208.472511,6.73989826 C208.472511,6.27404488 208.813829,5.93238341 209.279322,5.93238341 C209.393024,5.93238341 209.506726,5.95302858 209.6309,5.99453285 L209.6309,6.01517802 C209.682621,6.23264757 209.59991,6.429365 209.475735,6.429365 C209.6309,6.53291174 209.848151,6.58468511 210.106651,6.58468511 C210.81002,6.58468511 210.64449,5.70464475 210.427345,5.48717519 C210.158373,5.21803923 209.755074,5.08336428 209.227494,5.08336428 C208.110461,5.08336428 207.386575,5.69426868 207.386575,6.61570635 C207.386575,6.96774389 207.489911,7.28865322 207.707162,7.58881041 L207.096978,7.58881041 C206.983062,7.57854132 206.879619,7.53714401 206.786542,7.44397334 C206.652216,7.61993862 206.579764,7.80638694 206.579764,8.00299739 C206.579764,8.26186425 206.786542,8.53100021 207.086612,8.56212842" id="Fill-47" fill="#BD9F34"></path>
                            <path d="M219.818897,16.6686405 C219.187981,16.6686405 218.981095,16.2339153 218.981095,15.7473098 L219.074172,11.9890336 C220.34637,12.2892978 221.566739,13.831802 221.566739,15.0018374 C221.566739,16.1095094 220.987651,16.6686405 219.818897,16.6686405 M206.952126,16.3063338 C206.507364,16.0268218 206.290113,15.6126348 206.290113,15.0638799 C206.290113,13.8940584 207.603666,12.185751 208.875863,11.8958629 C208.875863,11.9165081 208.886229,13.5108926 208.896594,16.6686405 C208.058793,16.6790165 207.417512,16.5548246 206.952126,16.3063338 M223.997432,15.0122135 C223.883623,11.8958629 221.608201,9.93906479 217.812341,10.0737397 C217.129704,10.0737397 216.550509,10.2600811 216.064392,10.6223877 C216.281537,10.943404 216.384979,11.5749536 216.384979,12.5170364 L216.364355,15.4676908 C216.343624,15.8507495 216.240288,16.1510137 216.054133,16.3891284 C215.888603,16.5754698 215.712708,16.6686405 215.536919,16.6686405 L214.295498,16.6686405 L213.882047,16.6686405 L211.513228,16.6686405 C211.513228,16.5030513 211.513228,15.9853175 211.502969,15.1156532 C211.492604,14.7119493 211.492604,14.4530824 211.492604,14.3185145 C211.482238,13.573149 211.471979,12.9312234 211.471979,12.4031136 C211.471979,11.4817829 211.575315,10.8605025 211.792566,10.5395931 C211.306449,10.1771795 210.727255,10.0012142 210.054983,10.0012142 C208.162236,9.92868872 206.652163,10.3532518 205.545495,11.2643134 C204.480184,12.1028495 203.859527,13.7283622 203.859527,15.084632 C203.859527,15.7886001 204.045681,16.4202566 204.407731,16.9896568 C205.214543,18.2217347 206.621173,18.8531773 208.627622,18.8946815 L208.886229,18.8946815 C208.844873,19.6297778 208.751796,20.6960526 207.634656,20.6960526 C207.314069,20.6960526 207.003847,20.5615916 206.724616,20.3027247 C206.3522,20.7892233 206.166046,21.2136793 206.166046,21.576093 C206.166046,22.280168 207.014213,22.8909655 208.058793,22.8909655 C209.641319,22.8909655 210.696265,22.2594159 211.233996,20.9963168 C211.399526,20.5926128 211.492604,19.8988068 211.502969,18.9049506 L213.882047,18.9049506 L214.295498,18.9049506 L215.536919,18.9049506 C216.14721,18.9049506 216.581499,18.7186093 216.860731,18.3355505 C217.212415,18.7186093 217.729629,18.9049506 218.422632,18.9049506 L219.92234,18.9049506 C222.611426,18.9049506 224.069777,17.0516992 223.997432,15.0122135" id="Fill-49" fill="#BD9F34"></path>
                            <g id="Group-53" transform="translate(0.000000, 30.691202)">
                                <mask id="mask-4" fill="#BD9F34">
                                    <use xlink:href="#path-3"></use>
                                </mask>
                                <g id="Clip-52"></g>
                                <path d="M2.69707954,5.89606717 C2.65059439,5.89606717 2.60400236,5.85049804 2.61949742,5.78973921 C2.91411714,4.74122145 3.41006569,2.97846649 3.79754887,1.71718584 C3.82853897,1.58037149 3.87502413,1.42836744 3.95260625,1.20052181 L4.04557657,1.20052181 C4.13865375,1.4132847 4.20063396,1.59566817 4.24711912,1.73237555 C4.6655924,3.09998415 5.47165572,5.3034546 5.73517848,6.03277454 C5.06857063,6.04807122 3.41006569,5.98731239 2.69707954,5.89606717 M9.78077642,9.39119768 C9.78077642,9.28486972 9.74978631,9.20881421 9.70330116,9.1936245 L9.12977049,9.04162045 C9.03669331,9.01124103 8.95921804,8.93529249 8.92822794,8.84415424 C8.30821211,6.97496435 6.71168738,1.73237555 6.21563197,0.0911382505 C6.20013692,0.0607588337 6.13815671,0.0303794168 6.09167155,0.0303794168 C5.75067353,0.0151897084 5.33209339,0 4.78965968,0 L4.77416463,0 C4.1541488,0 3.95260625,0.0760555118 3.81304392,0.440715484 C3.11555283,2.2946087 1.50353304,6.95977464 0.74406174,8.78328844 C0.666586477,8.96567191 0.589004351,9.02653771 0.465043931,9.05691713 L0.0774538905,9.17843479 C0.0309687327,9.1936245 -2.13724864e-05,9.33033188 -2.13724864e-05,9.37600797 C-2.13724864e-05,9.40628042 -2.13724864e-05,9.4215771 0.0309687327,9.4215771 C0.340976647,9.40628042 0.80604195,9.39119768 1.3329806,9.39119768 C1.95310329,9.39119768 2.57301226,9.40628042 2.9606023,9.4215771 C2.9915924,9.4215771 3.00708746,9.4215771 3.00708746,9.39119768 C3.00708746,9.29995246 2.9606023,9.1936245 2.91411714,9.1936245 L2.10805382,9.04162045 C1.99958845,9.01124103 1.93760824,8.96567191 1.95310329,8.78328844 C2.04607361,8.23624499 2.34058647,7.00534376 2.43355679,6.56473525 C2.44905184,6.48867974 2.495537,6.44311061 2.54202215,6.44311061 C3.34808548,6.38235178 5.14615275,6.33678265 5.84364385,6.32159294 C6.01419629,6.83825697 6.5876201,8.29700383 6.75817254,8.79858511 C6.78916264,8.92010278 6.77366759,9.02653771 6.64970717,9.04162045 L5.81265374,9.17843479 C5.76616858,9.1936245 5.71968343,9.29995246 5.71968343,9.39119768 C5.71968343,9.40628042 5.71968343,9.4215771 5.76616858,9.4215771 C6.18464187,9.40628042 7.02169529,9.39119768 7.88973883,9.39119768 C8.66470518,9.39119768 9.40878829,9.4215771 9.73429126,9.4215771 C9.76528137,9.4215771 9.78077642,9.40628042 9.78077642,9.39119768" id="Fill-51" fill="#BD9F34" mask="url(#mask-4)"></path>
                            </g>
                            <path d="M13.4847565,32.3019953 C14.1202674,32.3019953 14.5698377,31.8612799 14.5698377,31.2686673 C14.5698377,30.7520033 14.1357625,30.2809084 13.5313486,30.2809084 L13.5158535,30.2809084 C12.7872654,30.2809084 12.3687922,30.8280588 12.3687922,31.2990467 C12.3687922,31.8764696 12.942216,32.3019953 13.4847565,32.3019953" id="Fill-54" fill="#BD9F34"></path>
                            <path d="M14.7713268,33.0617589 L11.4852001,33.5784229 C11.438715,33.5784229 11.438715,33.5937196 11.438715,33.6391817 C11.438715,33.7000475 11.4852001,33.8520516 11.5627823,33.8520516 L12.4772041,33.882431 C12.6167664,33.8975137 12.6322615,34.0040556 12.6477565,34.140763 C12.7252318,34.7029962 12.7718238,36.6025655 12.7718238,37.1343122 C12.7873189,37.7726009 12.7873189,39.0946404 12.7562219,39.7632015 C12.6322615,41.7995852 12.0277407,42.6657194 11.1751922,42.6657194 C10.9891447,42.6657194 10.8186992,42.6049606 10.6792437,42.5137154 C10.5706715,42.4377668 10.4777011,42.3617113 10.3382457,42.1946245 C10.0747229,41.8755337 9.78010319,41.4500079 9.51668729,41.0700513 C9.50119224,41.0397788 9.48569719,41.0397788 9.47020213,41.0397788 C9.42371698,41.0397788 9.28415464,41.1309171 9.29964969,41.1916759 L9.5786675,42.7872371 C9.59416256,42.8479959 9.60965761,42.8784823 9.65614277,42.893672 C9.90417047,42.9696206 10.3227506,43 10.6947387,43 C13.3452476,43 14.3838436,41.2220553 14.6782496,39.2010753 C14.8178119,38.3196444 14.8178119,37.4838895 14.848802,36.8304111 C14.8797922,35.9793596 14.8952872,33.8063755 14.9107823,33.1833835 C14.9107823,33.0770556 14.8797922,33.0465692 14.7713268,33.0617589" id="Fill-56" fill="#BD9F34"></path>
                            <path d="M24.2107098,37.8942042 C24.1952147,37.8942042 24.1797197,37.8942042 24.1642246,37.9244766 L23.4977237,39.0642396 C23.4202484,39.2010539 23.2961811,39.2770025 23.1722207,39.3073819 C22.2421969,39.5505242 20.2890723,39.6873385 19.8241138,39.7024213 C19.6535614,39.7024213 19.4831158,39.717718 19.2970683,39.7024213 L19.2815733,39.6873385 C19.4055337,39.5657139 19.5760861,39.3985201 19.6690564,39.2921922 C20.7386425,38.2588641 22.9706781,36.0250143 24.1331277,34.6574057 C24.257195,34.5054016 24.27269,34.3686942 24.27269,34.2319868 C24.27269,34.0646861 24.1952147,33.7000261 23.9781771,33.2290382 C23.9626821,33.1833621 23.931692,33.1529827 23.8697118,33.1529827 C23.5751989,33.1529827 22.1802167,33.1681724 20.8161178,33.1681724 C19.6380663,33.1681724 18.6770525,33.137793 18.3515495,33.1226033 C18.2895693,33.1226033 18.2430842,33.1681724 18.2430842,33.244121 L18.0105515,35.0068759 C17.9950565,35.0676348 18.150007,35.1740697 18.2120941,35.1740697 C18.2275891,35.1740697 18.2430842,35.1740697 18.2585792,35.1436903 L19.0955258,33.654457 C19.157506,33.5329394 19.2350881,33.4720735 19.3745436,33.4720735 C19.8551039,33.4720735 20.9711752,33.6240776 21.6685594,33.7457022 C21.7926267,33.760785 21.916694,33.7759747 22.0251593,33.8216508 L22.0251593,33.8672199 C21.932189,33.9887376 21.7926267,34.1407416 21.6996564,34.277449 C21.0021653,35.2196388 18.9870604,37.5598166 17.6695535,39.1706745 C17.6540584,39.2010539 17.6385634,39.2314333 17.6385634,39.2770025 C17.6385634,39.3377613 17.7160386,39.5353345 17.7625238,39.6416624 C17.9329694,40.0064294 18.0415416,40.0975676 18.2585792,40.0975676 C18.8940901,40.0975676 19.3280584,40.0823779 20.4130327,40.0823779 C22.0871396,40.0823779 23.4202484,40.1127573 23.9626821,40.1127573 C24.0556524,40.1127573 24.1021376,40.0823779 24.1021376,40.0216191 L24.3967573,38.0309115 C24.4122523,37.9701527 24.27269,37.8942042 24.2107098,37.8942042" id="Fill-58" fill="#BD9F34"></path>
                            <path d="M31.5421565,38.0156897 C31.2476437,38.8514446 30.6896081,39.4289744 30.0850873,39.4289744 L30.0695922,39.4289744 C29.4495764,39.4289744 29.0156081,38.8514446 29.0156081,37.7877371 C29.0156081,36.7544091 29.3721011,35.7667571 30.1625625,35.7667571 C30.8291704,35.7667571 31.3096239,36.3745594 31.5111664,36.8912234 C31.6041367,37.1039863 31.6506219,37.3014525 31.6506219,37.4686463 C31.6506219,37.6510298 31.6041367,37.8486029 31.5421565,38.0156897 M34.3012377,39.8999624 L33.6502317,39.7480653 C33.5261644,39.7176859 33.4951743,39.6720098 33.4951743,39.5656818 C33.4951743,39.3226465 33.5261644,38.6539784 33.5571545,37.9701206 C33.5881447,37.4534566 33.6192416,36.5872153 33.6192416,36.2985039 C33.6192416,34.7638085 33.2937387,33.0466227 31.2166536,33.0466227 C29.6046338,33.0466227 28.4575724,33.6849113 27.5895289,34.581425 C27.5120536,34.6573736 27.6360141,34.839757 27.6824992,34.839757 C27.6979943,34.839757 27.7134893,34.8245673 27.7289844,34.8092706 C28.5350477,34.1255198 29.2325388,33.806322 29.9766219,33.806322 C30.7205982,33.806322 31.1546734,34.3838518 31.340614,35.0828993 C31.4025942,35.3412314 31.4645744,35.6908086 31.4800695,36.0097925 L31.4180893,36.0250891 C31.3251189,35.9338439 31.2011585,35.8427057 31.1080813,35.7818399 C30.8756555,35.5995634 30.3796001,35.3868005 29.7595843,35.3868005 C27.7599745,35.3868005 26.8610477,36.8000852 26.8610477,38.1676938 C26.8610477,39.5505991 27.9150319,40.2039705 28.9225309,40.2039705 C30.2245428,40.2039705 30.999616,39.5201127 31.3870991,38.9426898 C31.4645744,38.8210652 31.5421565,38.6843578 31.6041367,38.5627332 L31.6506219,38.5931126 C31.6506219,38.7147372 31.666117,38.9426898 31.666117,39.0186384 C31.666117,39.3529189 31.6971071,39.8999624 31.7126021,40.021587 C31.7126021,40.0823458 31.7435922,40.0975355 31.7901842,40.0975355 C32.053707,40.0823458 32.37921,40.0823458 32.9061486,40.0823458 C33.5106694,40.0823458 34.1461803,40.0823458 34.3322278,40.0975355 C34.3787129,40.0975355 34.394208,40.0823458 34.394208,40.0519664 C34.394208,39.9912076 34.3632179,39.9303418 34.3012377,39.8999624" id="Fill-60" fill="#BD9F34"></path>
                            <path d="M40.253069,39.8999838 L39.4470057,39.7632764 C39.3385403,39.732897 39.2920552,39.7024106 39.2920552,39.5657032 C39.2920552,39.2769918 39.3540354,35.9338653 39.3695304,34.8396715 C39.4005206,33.0770235 39.5090928,30.0833673 39.5090928,29.8857941 C39.5090928,29.7794661 39.4779958,29.7489797 39.3850255,29.7642764 L36.0679088,30.098557 C36.0214236,30.098557 36.0214236,30.1289364 36.0214236,30.1593158 C36.0214236,30.2352644 36.0834038,30.3418063 36.1454909,30.3418063 L37.0600196,30.3872684 C37.199475,30.3872684 37.2459602,30.4632169 37.2459602,30.6000313 C37.2614553,31.2231302 37.3389305,34.4446321 37.3389305,34.9916755 C37.3389305,35.5235292 37.4165126,39.1553671 37.3855225,39.5809999 C37.3855225,39.7024106 37.3234355,39.732897 37.2149701,39.7632764 L36.4553919,39.8999838 C36.3934117,39.9152804 36.3624216,40.0216084 36.3624216,40.0671775 C36.3624216,40.0975569 36.3779167,40.1127466 36.4089068,40.1127466 C36.7344097,40.0975569 37.4010176,40.0823672 38.2534592,40.0823672 C39.1679879,40.0823672 39.912071,40.0975569 40.3150492,40.1127466 C40.3460393,40.1127466 40.3460393,40.0975569 40.3460393,40.0823672 C40.3460393,40.0064187 40.2995542,39.8999838 40.253069,39.8999838" id="Fill-62" fill="#BD9F34"></path>
                            <path d="M48.6227698,36.5872688 C48.5762846,36.5872688 48.5296926,36.5416997 48.5451877,36.4809408 C48.8398074,35.4324231 49.3357559,33.6696681 49.7232391,32.4083875 C49.7542292,32.2715731 49.8007144,32.1195691 49.8782965,31.8917234 L49.9712668,31.8917234 C50.064344,32.1044863 50.1263242,32.2868698 50.1728094,32.4235772 C50.5912826,33.7911858 51.397346,35.9946562 51.6608687,36.7239762 C50.9942609,36.7392729 49.3357559,36.678514 48.6227698,36.5872688 M55.6289914,39.8848261 L55.0554607,39.7328221 C54.9623835,39.7024427 54.8849083,39.6264941 54.8539182,39.5353559 C54.2339024,37.666166 52.6373776,32.4235772 52.1413222,30.7823399 C52.1258272,30.7519605 52.063847,30.7215811 52.0173618,30.7215811 C51.6763638,30.7063913 51.2577836,30.6912016 50.7153499,30.6912016 L50.6998549,30.6912016 C50.079839,30.6912016 49.8782965,30.7672571 49.7387342,31.1319171 C49.0412431,32.9858103 47.4292233,37.6509763 46.669752,39.4744901 C46.5922767,39.6568735 46.5146946,39.7177393 46.3907342,39.7481188 L46.0031441,39.8696364 C45.956659,39.8848261 45.9256689,40.0215335 45.9256689,40.0672096 C45.9256689,40.0974821 45.9256689,40.1127787 45.956659,40.1127787 C46.2666669,40.0974821 46.7317322,40.0823993 47.2586708,40.0823993 C47.8787935,40.0823993 48.4987025,40.0974821 48.8862925,40.1127787 C48.9172826,40.1127787 48.9327777,40.1127787 48.9327777,40.0823993 C48.9327777,39.9911541 48.8862925,39.8848261 48.8398074,39.8848261 L48.0337441,39.7328221 C47.9252787,39.7024427 47.8632985,39.6568735 47.8787935,39.4744901 C47.9717639,38.9274466 48.2662767,37.6965454 48.359247,37.2559369 C48.3747421,37.1798814 48.4212272,37.1343122 48.4677124,37.1343122 C49.2737757,37.0735534 51.071843,37.0279843 51.7693341,37.0127946 C51.9398865,37.5294586 52.5133103,38.9882055 52.6838628,39.4897867 C52.7148529,39.6113044 52.6993578,39.7177393 52.5753974,39.7328221 L51.738344,39.8696364 C51.6918588,39.8848261 51.6453737,39.9911541 51.6453737,40.0823993 C51.6453737,40.0974821 51.6453737,40.1127787 51.6918588,40.1127787 C52.1103321,40.0974821 52.9473855,40.0823993 53.8154291,40.0823993 C54.5903954,40.0823993 55.3344785,40.1127787 55.6599815,40.1127787 C55.6909716,40.1127787 55.7064667,40.0974821 55.7064667,40.0823993 C55.7064667,39.9760714 55.6754766,39.9000158 55.6289914,39.8848261" id="Fill-64" fill="#BD9F34"></path>
                            <path d="M61.1620396,39.8999838 L60.3559763,39.7632764 C60.2475109,39.732897 60.2010257,39.7024106 60.2010257,39.5657032 C60.2010257,39.2769918 60.2630059,35.9338653 60.278501,34.8396715 C60.3094911,33.0770235 60.4180633,30.0833673 60.4180633,29.8857941 C60.4180633,29.7794661 60.3869664,29.7489797 60.2939961,29.7642764 L56.9768793,30.098557 C56.9303942,30.098557 56.9303942,30.1289364 56.9303942,30.1593158 C56.9303942,30.2352644 56.9923744,30.3418063 57.0544614,30.3418063 L57.9689901,30.3872684 C58.1084456,30.3872684 58.1549308,30.4632169 58.1549308,30.6000313 C58.1704258,31.2231302 58.2479011,34.4446321 58.2479011,34.9916755 C58.2479011,35.5235292 58.3254832,39.1553671 58.2944931,39.5809999 C58.2944931,39.7024106 58.232406,39.732897 58.1239407,39.7632764 L57.3643625,39.8999838 C57.3023823,39.9152804 57.2713922,40.0216084 57.2713922,40.0671775 C57.2713922,40.0975569 57.2868872,40.1127466 57.3178773,40.1127466 C57.6433803,40.0975569 58.3099881,40.0823672 59.1624298,40.0823672 C60.0769585,40.0823672 60.8210416,40.0975569 61.2240198,40.1127466 C61.2550099,40.1127466 61.2550099,40.0975569 61.2550099,40.0823672 C61.2550099,40.0064187 61.2085247,39.8999838 61.1620396,39.8999838" id="Fill-66" fill="#BD9F34"></path>
                            <path d="M71.9345421,39.8999838 L71.5004669,39.7480867 C71.3610114,39.7024106 71.237051,39.5960826 71.1594689,39.5201341 C70.1674649,38.3044226 69.0669956,37.0279522 68.0283997,35.949055 C67.9044392,35.7971579 67.7803719,35.6755333 67.6719066,35.5842881 L67.6719066,35.5235292 C67.7338868,35.4779601 67.7803719,35.432391 67.8579541,35.3868219 C68.6174254,34.8853476 69.6560213,34.2015967 70.4464828,33.7000154 C70.6324234,33.5936875 70.7255006,33.5480114 70.880558,33.5024423 L71.2525461,33.411304 C71.2990312,33.3961143 71.3300213,33.2896794 71.3300213,33.2290275 C71.3300213,33.1986481 71.3300213,33.1681617 71.2835362,33.1681617 L68.3539026,33.1681617 C68.3074175,33.1681617 68.3074175,33.1833514 68.3074175,33.2137308 C68.3074175,33.3049761 68.3539026,33.411304 68.4159897,33.4264937 L69.0669956,33.5480114 C69.175461,33.5783908 69.1599659,33.6848257 69.0824907,33.7607743 C68.2609323,34.55096 67.2999185,35.3563355 66.6179224,35.9034859 C66.5248452,35.9946241 66.4008848,36.1162488 66.2459343,36.2681459 L66.1994491,36.2529562 C66.1994491,36.1009521 66.2304392,35.8579168 66.2304392,35.7059127 C66.2614293,34.4599287 66.4163799,30.4328375 66.4318749,29.8706044 C66.4318749,29.7946558 66.4008848,29.7489797 66.2924194,29.7642764 L63.0062928,30.0681776 C62.9598076,30.0681776 62.9598076,30.0833673 62.9598076,30.098557 C62.9598076,30.1593158 63.0217879,30.2809404 63.052778,30.2809404 L63.9828017,30.3418063 C64.122364,30.356889 64.1688492,30.4176478 64.1688492,30.5544622 C64.1843443,31.1015056 64.2308294,34.6117189 64.2308294,35.1284899 C64.2308294,35.7818613 64.2773146,39.0947153 64.2618195,39.5809999 C64.2618195,39.7024106 64.2153344,39.7480867 64.1378591,39.7632764 L63.3782809,39.8999838 C63.3008057,39.9152804 63.2853106,40.0216084 63.2853106,40.0671775 C63.2853106,40.0975569 63.2853106,40.1127466 63.3317958,40.1127466 C63.6263086,40.0975569 64.3083047,40.0823672 65.1918433,40.0823672 C66.0443917,40.0823672 66.788368,40.0975569 67.1448611,40.1127466 C67.1914531,40.1127466 67.2069481,40.0975569 67.2069481,40.0671775 C67.2069481,40.0064187 67.175958,39.9152804 67.113871,39.8999838 L66.3079145,39.7632764 C66.1994491,39.7480867 66.1839541,39.732897 66.1683522,39.5960826 C66.1528571,39.3377506 66.1839541,38.2892328 66.1994491,37.71181 C66.1994491,37.5901853 66.2149442,37.3622328 66.2149442,37.1343871 L66.2614293,37.1191974 C66.3853898,37.2255254 66.5093502,37.3167706 66.6024274,37.3927191 C67.4704709,38.0613872 68.6484155,39.0186598 69.2839264,39.5657032 C69.4079936,39.6720312 69.3768967,39.732897 69.2219462,39.7784661 L68.6484155,39.9152804 C68.5864353,39.9303632 68.5709402,40.0064187 68.5709402,40.0671775 C68.5709402,40.0975569 68.5864353,40.1127466 68.6174254,40.1127466 C69.2064511,40.0975569 69.8729521,40.0823672 70.4774729,40.0823672 C71.0199066,40.0823672 71.6555243,40.0975569 71.9655322,40.1127466 C72.0121242,40.1127466 72.0121242,40.0975569 72.0121242,40.0671775 C72.0121242,40.0064187 71.9965223,39.9152804 71.9345421,39.8999838" id="Fill-68" fill="#BD9F34"></path>
                            <path d="M82.5515919,39.8999838 L81.8076156,39.7480867 C81.6990434,39.7177073 81.6680533,39.6569484 81.6836552,39.4136991 C81.7301404,38.8970351 81.8541008,37.5901853 81.8541008,36.2529562 C81.8541008,34.2774383 81.24958,33.046644 79.9940533,33.046644 C78.3975286,33.046644 77.219584,35.0676241 76.7855088,36.2529562 C76.7545187,36.3442014 76.6769365,36.5112882 76.6304514,36.7088614 L76.5529761,36.7088614 C76.5684712,36.5264779 76.5839662,36.3442014 76.5839662,36.2072801 C76.6304514,35.0068652 76.8010038,30.0226084 76.8010038,29.9009838 C76.8010038,29.8098455 76.7699069,29.7489797 76.6769365,29.7642764 L73.3754217,30.0529879 C73.3288297,30.0529879 73.3288297,30.0833673 73.3288297,30.098557 C73.3288297,30.1898022 73.3754217,30.2809404 73.4218,30.2809404 L74.3674257,30.3265096 C74.506988,30.3418063 74.5379781,30.4024581 74.5379781,30.5392725 C74.5533663,31.1015056 74.5999583,34.4294424 74.5999583,35.0980035 C74.5999583,35.9642447 74.6309484,39.1401774 74.6153465,39.5505135 C74.5999583,39.6720312 74.5843564,39.7177073 74.4913861,39.732897 L73.7474098,39.8999838 C73.7164197,39.8999838 73.6699346,40.0064187 73.6699346,40.0671775 C73.6699346,40.0975569 73.6699346,40.1127466 73.7164197,40.1127466 C73.9644474,40.0975569 74.6619385,40.0823672 75.5143802,40.0823672 C76.3825305,40.0823672 77.172992,40.0975569 77.4984949,40.1127466 C77.5449801,40.1127466 77.5449801,40.0975569 77.5449801,40.0671775 C77.5449801,39.991229 77.4984949,39.8999838 77.4675048,39.8999838 L76.7079267,39.7480867 C76.5994613,39.732897 76.5374811,39.7024106 76.5374811,39.5657032 C76.5374811,39.109798 76.5994613,38.1827979 76.6769365,37.7877585 C77.0490315,35.9642447 77.9324633,34.4599287 78.8005068,34.4599287 C79.6220652,34.4599287 79.8236077,35.8882962 79.8236077,37.3318533 C79.8236077,38.2740431 79.7926176,39.1553671 79.7460256,39.5505135 C79.7306374,39.6873278 79.6996473,39.7480867 79.5754731,39.7632764 L78.8005068,39.8999838 C78.7540216,39.8999838 78.7385266,40.0216084 78.7385266,40.0823672 C78.7385266,40.0975569 78.7385266,40.1127466 78.7850117,40.1127466 C79.1105147,40.0975569 79.8236077,40.0823672 80.7380295,40.0823672 C81.6370632,40.0823672 82.303671,40.0975569 82.582582,40.1127466 C82.6135721,40.1127466 82.629174,40.0975569 82.629174,40.0823672 C82.629174,39.991229 82.582582,39.8999838 82.5515919,39.8999838" id="Fill-70" fill="#BD9F34"></path>
                            <path d="M89.5417948,38.0156897 C89.2472819,38.8514446 88.6892463,39.4289744 88.0847255,39.4289744 L88.0692305,39.4289744 C87.4492147,39.4289744 87.0151395,38.8514446 87.0151395,37.7877371 C87.0151395,36.7544091 87.3716325,35.7667571 88.1623077,35.7667571 C88.8287018,35.7667571 89.3092622,36.3745594 89.5108047,36.8912234 C89.603775,37.1039863 89.650367,37.3014525 89.650367,37.4686463 C89.650367,37.6510298 89.603775,37.8486029 89.5417948,38.0156897 M92.3007691,39.8999624 L91.64987,39.7480653 C91.5258027,39.7176859 91.4948126,39.6720098 91.4948126,39.5656818 C91.4948126,39.3226465 91.5258027,38.6539784 91.5567928,37.9701206 C91.5877829,37.4534566 91.6188799,36.5872153 91.6188799,36.2985039 C91.6188799,34.7638085 91.2933769,33.0466227 89.2162918,33.0466227 C87.6041652,33.0466227 86.4572107,33.6849113 85.5891672,34.581425 C85.5116919,34.6573736 85.6356523,34.839757 85.6822444,34.839757 C85.6976325,34.839757 85.7132345,34.8245673 85.7286227,34.8092706 C86.534686,34.1255198 87.2322839,33.806322 87.9762602,33.806322 C88.7203433,33.806322 89.1543116,34.3838518 89.3402523,35.0828993 C89.4022325,35.3412314 89.4642127,35.6908086 89.4798146,36.0097925 L89.4178344,36.0250891 C89.3247572,35.9338439 89.2007968,35.8427057 89.1077196,35.7818399 C88.8752938,35.5995634 88.3792384,35.3868005 87.7592226,35.3868005 C85.7596128,35.3868005 84.8605791,36.8000852 84.8605791,38.1676938 C84.8605791,39.5505991 85.914777,40.2039705 86.9221692,40.2039705 C88.2242879,40.2039705 88.9992542,39.5201127 89.3868443,38.9426898 C89.4642127,38.8210652 89.5417948,38.6843578 89.603775,38.5627332 L89.650367,38.5931126 C89.650367,38.7147372 89.6657552,38.9426898 89.6657552,39.0186384 C89.6657552,39.3529189 89.6967453,39.8999624 89.7123472,40.021587 C89.7123472,40.0823458 89.7433374,40.0975355 89.7897156,40.0975355 C90.0532384,40.0823458 90.3787414,40.0823458 90.9058937,40.0823458 C91.5103077,40.0823458 92.1458185,40.0823458 92.3317592,40.0975355 C92.3783512,40.0975355 92.3938462,40.0823458 92.3938462,40.0519664 C92.3938462,39.9912076 92.3628561,39.9303418 92.3007691,39.8999624" id="Fill-72" fill="#BD9F34"></path>
                            <path d="M98.2526539,39.8999838 L97.4465906,39.7632764 C97.3380183,39.732897 97.29164,39.7024106 97.29164,39.5657032 C97.29164,39.2769918 97.3536202,35.9338653 97.3691153,34.8396715 C97.4001054,33.0770235 97.5085708,30.0833673 97.5085708,29.8857941 C97.5085708,29.7794661 97.4775807,29.7489797 97.3846103,29.7642764 L94.0674936,30.098557 C94.0210084,30.098557 94.0210084,30.1289364 94.0210084,30.1593158 C94.0210084,30.2352644 94.0829886,30.3418063 94.1450757,30.3418063 L95.0594975,30.3872684 C95.1990599,30.3872684 95.245545,30.4632169 95.245545,30.6000313 C95.2610401,31.2231302 95.3385154,34.4446321 95.3385154,34.9916755 C95.3385154,35.5235292 95.4160975,39.1553671 95.3851074,39.5809999 C95.3851074,39.7024106 95.3230203,39.732897 95.2145549,39.7632764 L94.4550836,39.8999838 C94.3931034,39.9152804 94.3620065,40.0216084 94.3620065,40.0671775 C94.3620065,40.0975569 94.3775015,40.1127466 94.4084916,40.1127466 C94.7339946,40.0975569 95.4006024,40.0823672 96.253044,40.0823672 C97.1676796,40.0823672 97.9116559,40.0975569 98.3146341,40.1127466 C98.3456242,40.1127466 98.3456242,40.0975569 98.3456242,40.0823672 C98.3456242,40.0064187 98.299139,39.8999838 98.2526539,39.8999838" id="Fill-74" fill="#BD9F34"></path>
                            <path d="M104.778251,36.2681352 C104.53033,36.3441907 103.646685,36.4201392 102.778748,36.3593804 C102.747758,34.2470482 103.367774,33.3505345 103.972295,33.3505345 L103.98779,33.3353448 C104.809241,33.3353448 104.995289,34.9612854 104.995289,35.7818506 C104.995289,36.1010484 104.902211,36.2073763 104.778251,36.2681352 M104.251206,33.0466334 C102.050267,33.0466334 100.531217,35.0221512 100.531217,37.0735106 C100.531217,39.3073605 101.972685,40.2039812 103.925703,40.2039812 C104.607699,40.2039812 104.948803,40.1583051 105.289801,40.0519771 C105.956302,39.8695936 106.715881,39.5049337 107.072374,39.2922778 C107.103364,39.2617914 107.134354,39.2466017 107.134354,39.2010325 C107.134354,39.0947046 107.087762,39.0034594 107.056772,39.0186491 C106.731269,39.1857359 106.23532,39.3377399 105.925312,39.4136884 C105.661896,39.4745543 105.258811,39.5201234 104.886823,39.5201234 C103.98779,39.5201234 103.119639,38.8059931 102.856223,37.6661232 C102.809738,37.4534673 102.763253,36.9823724 102.778748,36.6329021 C103.507229,36.6936609 106.312796,36.6936609 106.886326,36.5112775 C107.072374,36.4505186 107.196334,36.2681352 107.196334,36.0858587 L107.196334,36.070562 C107.196334,34.7941986 106.328291,33.0466334 104.251206,33.0466334" id="Fill-76" fill="#BD9F34"></path>
                            <path d="M114.078093,36.2681352 C113.830172,36.3441907 112.946527,36.4201392 112.07859,36.3593804 C112.0476,34.2470482 112.667616,33.3505345 113.272137,33.3505345 L113.287632,33.3353448 C114.109083,33.3353448 114.295131,34.9612854 114.295131,35.7818506 C114.295131,36.1010484 114.202053,36.2073763 114.078093,36.2681352 M113.551048,33.0466334 C111.350109,33.0466334 109.831059,35.0221512 109.831059,37.0735106 C109.831059,39.3073605 111.272527,40.2039812 113.225545,40.2039812 C113.907541,40.2039812 114.248646,40.1583051 114.589644,40.0519771 C115.256145,39.8695936 116.015723,39.5049337 116.372216,39.2922778 C116.403206,39.2617914 116.434196,39.2466017 116.434196,39.2010325 C116.434196,39.0947046 116.387604,39.0034594 116.356614,39.0186491 C116.031111,39.1857359 115.535162,39.3377399 115.225154,39.4136884 C114.961632,39.4745543 114.558653,39.5201234 114.186665,39.5201234 C113.287632,39.5201234 112.419481,38.8059931 112.156065,37.6661232 C112.10958,37.4534673 112.063095,36.9823724 112.07859,36.6329021 C112.807071,36.6936609 115.612638,36.6936609 116.186168,36.5112775 C116.372216,36.4505186 116.496176,36.2681352 116.496176,36.0858587 L116.496176,36.070562 C116.496176,34.7941986 115.628133,33.0466334 113.551048,33.0466334" id="Fill-78" fill="#BD9F34"></path>
                            <path d="M120.773911,32.3019953 C121.409422,32.3019953 121.858886,31.8612799 121.858886,31.2686673 C121.858886,30.7520033 121.424917,30.2809084 120.820397,30.2809084 L120.804901,30.2809084 C120.07642,30.2809084 119.65784,30.8280588 119.65784,31.2990467 C119.65784,31.8764696 120.231371,32.3019953 120.773911,32.3019953" id="Fill-80" fill="#BD9F34"></path>
                            <path d="M122.060428,33.0617589 L118.774302,33.5784229 C118.727816,33.5784229 118.727816,33.5937196 118.727816,33.6391817 C118.727816,33.7000475 118.774302,33.8520516 118.851884,33.8520516 L119.766305,33.882431 C119.905868,33.8975137 119.921256,34.0040556 119.936858,34.140763 C120.01444,34.7029962 120.060818,36.6025655 120.060818,37.1343122 C120.07642,37.7726009 120.07642,39.0946404 120.04543,39.7632015 C119.921256,41.7995852 119.316842,42.6657194 118.4644,42.6657194 C118.278246,42.6657194 118.107801,42.6049606 117.968345,42.5137154 C117.859773,42.4377668 117.766803,42.3617113 117.627347,42.1946245 C117.363824,41.8755337 117.069311,41.4500079 116.805789,41.0700513 C116.790294,41.0397788 116.774799,41.0397788 116.759304,41.0397788 C116.712818,41.0397788 116.573256,41.1309171 116.588751,41.1916759 L116.867769,42.7872371 C116.883264,42.8479959 116.898759,42.8784823 116.945244,42.893672 C117.193272,42.9696206 117.611745,43 117.98384,43 C120.634349,43 121.672945,41.2220553 121.967458,39.2010753 C122.106913,38.3196444 122.106913,37.4838895 122.137903,36.8304111 C122.169,35.9793596 122.184389,33.8063755 122.199991,33.1833835 C122.199991,33.0770556 122.169,33.0465692 122.060428,33.0617589" id="Fill-82" fill="#BD9F34"></path>
                            <path d="M137.420652,30.6456432 C137.31208,30.6456432 136.986577,30.6608329 136.335678,30.6760226 C135.684565,30.706402 134.708056,30.7215918 133.297579,30.7215918 C131.84051,30.7215918 130.864001,30.6912123 130.212995,30.6760226 C129.577377,30.6456432 129.282971,30.6303465 129.158904,30.6303465 C129.081429,30.6303465 129.050439,30.6760226 129.050439,30.7368884 L128.895488,32.9706313 C128.895488,33.0162004 129.034837,33.092149 129.081429,33.092149 C129.112419,33.092149 129.127914,33.0769593 129.143409,33.0465799 L129.856502,31.5269672 C129.949472,31.3445837 130.042443,31.2535525 130.197393,31.2078764 C130.724439,31.071169 131.794025,30.9952204 132.057441,30.9799238 C132.073043,31.7549198 132.135023,34.5813822 132.135023,35.1892915 C132.150518,35.9034217 132.212498,38.9122676 132.197003,39.5201769 C132.197003,39.6720739 132.181508,39.71775 132.073043,39.7328328 L131.282581,39.8848368 C131.235989,39.8848368 131.204999,40.0064615 131.204999,40.08241 C131.204999,40.0974928 131.204999,40.1127894 131.251484,40.1127894 C131.592482,40.0974928 132.351954,40.08241 133.173512,40.08241 C134.072546,40.08241 134.924987,40.0974928 135.266092,40.1127894 C135.312577,40.1127894 135.312577,40.0974928 135.312577,40.0672203 C135.312577,39.9760821 135.281587,39.8848368 135.235102,39.8848368 L134.460029,39.7481295 C134.351563,39.7328328 134.289583,39.7024534 134.289583,39.5505563 C134.289583,38.942647 134.336068,36.1009949 134.351563,35.2500503 C134.382554,34.4446749 134.444534,31.8765444 134.491126,30.9799238 C134.770037,30.9952204 135.855118,31.071169 136.382056,31.2230661 C136.537114,31.2686352 136.614589,31.3598804 136.692171,31.5269672 L137.37406,33.0617696 C137.389662,33.0769593 137.405051,33.092149 137.420652,33.092149 C137.482633,33.092149 137.606593,33.0314971 137.606593,32.9706313 L137.513623,30.7519712 C137.513623,30.6760226 137.482633,30.6456432 137.420652,30.6456432" id="Fill-84" fill="#BD9F34"></path>
                            <path d="M145.542507,33.1682045 C145.433935,33.092149 145.263489,33.0465799 145.046452,33.0465799 C143.635975,33.0465799 142.829911,34.8397142 142.473418,36.2833784 C142.457923,36.3746236 142.426933,36.511331 142.395943,36.6784178 L142.333963,36.6784178 C142.333963,36.5569001 142.349458,36.3746236 142.349458,36.2377023 C142.411438,35.4020544 142.504408,33.4265365 142.504408,33.1985839 C142.504408,33.092149 142.473418,33.0314971 142.349458,33.0617696 L139.342242,33.5024851 C139.295864,33.5024851 139.295864,33.5328645 139.295864,33.5632439 C139.295864,33.6241097 139.326854,33.7456274 139.388834,33.7456274 L140.086325,33.7911965 C140.225887,33.8063862 140.256878,33.8975244 140.256878,34.0343388 C140.287868,34.4598646 140.303363,36.0250464 140.318858,36.6784178 C140.334353,37.286327 140.36545,39.1705996 140.36545,39.565746 C140.36545,39.6872637 140.318858,39.7328328 140.225887,39.7632122 L139.450814,39.9152163 C139.404436,39.9152163 139.373446,40.0064615 139.373446,40.08241 C139.373446,40.0974928 139.373446,40.1127894 139.404436,40.1127894 C139.590377,40.0974928 140.39644,40.08241 141.310862,40.08241 C142.364953,40.08241 143.263986,40.0974928 143.697955,40.1127894 C143.728945,40.1127894 143.728945,40.0974928 143.728945,40.0672203 C143.728945,40.0215442 143.68246,39.9152163 143.65147,39.9152163 L142.442428,39.7481295 C142.333963,39.7328328 142.271982,39.7024534 142.271982,39.565746 C142.271982,39.200979 142.349458,38.1980304 142.426933,37.7726116 C142.845513,35.7059555 143.573994,34.1863428 144.426543,34.1863428 C144.596988,34.1863428 144.752046,34.2926708 144.860511,34.4446749 C145.046452,34.7333863 145.294479,35.1437224 145.480527,35.4930856 C145.495915,35.523572 145.511517,35.523572 145.526905,35.523572 C145.558109,35.523572 145.697458,35.4476235 145.697458,35.3867577 L145.589099,33.2745325 C145.589099,33.2289633 145.573497,33.1985839 145.542507,33.1682045" id="Fill-86" fill="#BD9F34"></path>
                            <path d="M152.315854,38.0156897 C152.021341,38.8514446 151.463306,39.4289744 150.858785,39.4289744 L150.84329,39.4289744 C150.223274,39.4289744 149.789199,38.8514446 149.789199,37.7877371 C149.789199,36.7544091 150.145692,35.7667571 150.936367,35.7667571 C151.602761,35.7667571 152.083322,36.3745594 152.284864,36.8912234 C152.377834,37.1039863 152.424426,37.3014525 152.424426,37.4686463 C152.424426,37.6510298 152.377834,37.8486029 152.315854,38.0156897 M155.074828,39.8999624 L154.423929,39.7480653 C154.299862,39.7176859 154.268872,39.6720098 154.268872,39.5656818 C154.268872,39.3226465 154.299862,38.6539784 154.330852,37.9701206 C154.361842,37.4534566 154.392939,36.5872153 154.392939,36.2985039 C154.392939,34.7638085 154.067436,33.0466227 151.990351,33.0466227 C150.378225,33.0466227 149.23127,33.6849113 148.363227,34.581425 C148.285751,34.6573736 148.409712,34.839757 148.456304,34.839757 C148.471692,34.839757 148.487294,34.8245673 148.502682,34.8092706 C149.308745,34.1255198 150.006343,33.806322 150.75032,33.806322 C151.494403,33.806322 151.928371,34.3838518 152.114312,35.0828993 C152.176292,35.3412314 152.238272,35.6908086 152.253874,36.0097925 L152.191894,36.0250891 C152.098817,35.9338439 151.974856,35.8427057 151.881779,35.7818399 C151.649353,35.5995634 151.153298,35.3868005 150.533282,35.3868005 C148.533672,35.3868005 147.634638,36.8000852 147.634638,38.1676938 C147.634638,39.5505991 148.688836,40.2039705 149.696229,40.2039705 C150.998347,40.2039705 151.773314,39.5201127 152.160904,38.9426898 C152.238272,38.8210652 152.315854,38.6843578 152.377834,38.5627332 L152.424426,38.5931126 C152.424426,38.7147372 152.439815,38.9426898 152.439815,39.0186384 C152.439815,39.3529189 152.470805,39.8999624 152.486407,40.021587 C152.486407,40.0823458 152.517397,40.0975355 152.563775,40.0975355 C152.827298,40.0823458 153.152801,40.0823458 153.679953,40.0823458 C154.284367,40.0823458 154.919878,40.0823458 155.105819,40.0975355 C155.152411,40.0975355 155.167906,40.0823458 155.167906,40.0519664 C155.167906,39.9912076 155.136916,39.9303418 155.074828,39.8999624" id="Fill-88" fill="#BD9F34"></path>
                            <path d="M162.80935,36.298536 C162.375274,38.0309115 161.631298,39.1249984 160.825342,39.1249984 L160.80974,39.1249984 C160.050268,39.1249984 159.662785,38.0157218 159.662785,36.708872 C159.662785,34.5662674 160.267306,33.3504489 161.243815,33.3504489 C162.065266,33.3504489 162.623302,34.2470696 162.824845,35.1285006 C162.855835,35.3412634 162.886932,35.5995955 162.886932,35.7971686 C162.886932,35.9034966 162.855835,36.1314492 162.80935,36.298536 M165.645906,39.8999945 L164.855338,39.7480974 C164.746872,39.717718 164.715882,39.6873385 164.715882,39.5201448 C164.715882,39.3681407 164.746872,35.8122514 164.762367,35.417212 C164.762367,34.7789233 164.90193,29.976943 164.90193,29.8858048 C164.90193,29.8098562 164.886435,29.7489904 164.777862,29.7642871 L161.305795,30.0073225 C161.25931,30.0073225 161.25931,30.0226191 161.25931,30.0378088 C161.25931,30.1138644 161.305795,30.2352751 161.367775,30.2352751 L162.452857,30.2961409 C162.576817,30.2961409 162.638797,30.3720894 162.654399,30.4936071 C162.685389,31.1927615 162.716379,32.6666981 162.731767,32.9402198 C162.747369,33.1226033 162.762758,33.4720735 162.793748,33.7304056 L162.747369,33.7457022 C162.669787,33.654457 162.592312,33.5633188 162.483847,33.4873702 C162.189334,33.2745004 161.739764,33.0466547 161.057767,33.0466547 C158.763752,33.0466547 157.49273,34.9916862 157.49273,37.4231093 C157.49273,39.1857572 158.422754,40.2040026 159.70927,40.2040026 C161.19733,40.2040026 162.096257,38.9731013 162.623302,37.9244766 C162.685389,37.7725795 162.731767,37.6358721 162.793748,37.4838681 L162.855835,37.4990578 C162.855835,37.7270104 162.824845,37.9397733 162.824845,38.1677259 C162.824845,38.4868167 162.84034,39.7480974 162.84034,39.9607533 C162.84034,40.0671882 162.87133,40.0975676 162.93331,40.0975676 C163.212328,40.0823779 163.630801,40.0823779 164.204439,40.0823779 C164.762367,40.0823779 165.242821,40.0823779 165.692391,40.0975676 C165.723488,40.0975676 165.738876,40.0823779 165.738876,40.0519985 C165.738876,39.9912397 165.692391,39.9152911 165.645906,39.8999945" id="Fill-90" fill="#BD9F34"></path>
                            <path d="M169.504954,32.3171423 C170.125077,32.3171423 170.57454,31.8461543 170.57454,31.2686245 C170.57454,30.7519605 170.171455,30.2809725 169.520556,30.2809725 L169.504954,30.2809725 C168.791968,30.2809725 168.373495,30.828016 168.373495,31.3143006 C168.373495,31.9372926 168.96252,32.3171423 169.504954,32.3171423" id="Fill-92" fill="#BD9F34"></path>
                            <path d="M171.535543,39.9152376 L170.76047,39.7632336 C170.652005,39.7328542 170.621015,39.7024748 170.621015,39.5656604 C170.621015,38.9882376 170.652005,37.3014311 170.6675,36.6176803 C170.682995,35.8730637 170.76047,33.7759212 170.79146,33.1682259 C170.79146,33.0921704 170.745082,33.0314116 170.652005,33.0466013 L167.598411,33.5480756 C167.567421,33.5480756 167.567421,33.5632653 167.567421,33.578455 C167.567421,33.6695932 167.629401,33.7759212 167.675993,33.7759212 L168.373484,33.8064076 C168.51294,33.8064076 168.528435,33.9128425 168.54393,34.0342532 C168.559425,34.4142099 168.60591,36.0250677 168.621405,36.6480597 C168.637007,37.3926764 168.683492,39.2161901 168.683492,39.5505777 C168.683492,39.687285 168.621405,39.7176645 168.51294,39.7481509 L167.784351,39.9152376 C167.737973,39.9304274 167.706983,40.0215656 167.706983,40.0823244 C167.706983,40.0975141 167.706983,40.1128108 167.753361,40.1128108 C168.063476,40.0975141 168.791957,40.0823244 169.644506,40.0823244 C170.481559,40.0823244 171.21004,40.0975141 171.582029,40.1128108 C171.613126,40.1128108 171.613126,40.0975141 171.613126,40.0672417 C171.613126,40.0215656 171.566534,39.9152376 171.535543,39.9152376" id="Fill-94" fill="#BD9F34"></path>
                            <path d="M182.633474,39.9152376 L181.843013,39.7328542 C181.687955,39.7024748 181.656965,39.6265262 181.67246,39.4745222 C181.73444,38.8363405 181.843013,37.4230558 181.843013,36.2984825 C181.843013,34.1862573 181.207395,33.0466013 179.96747,33.0466013 C178.448421,33.0466013 177.270262,34.8854117 176.836401,36.2377237 C176.805304,36.3137792 176.743324,36.5113524 176.696839,36.6633564 L176.619363,36.6480597 C176.634858,36.4809729 176.650353,36.2833998 176.650353,36.1313957 C176.681344,35.3108305 176.758819,33.3808818 176.774314,33.1682259 C176.774314,33.0769807 176.743324,33.0314116 176.650353,33.0466013 L173.643245,33.5175892 C173.596759,33.5175892 173.596759,33.5328859 173.596759,33.5632653 C173.596759,33.6392138 173.643245,33.7456488 173.689837,33.7456488 L174.371726,33.7912179 C174.511288,33.8064076 174.511288,33.8975458 174.526783,34.0342532 C174.542278,34.4295065 174.588763,36.1313957 174.604258,36.6480597 C174.604258,37.3167278 174.635249,39.0946725 174.635249,39.5505777 C174.635249,39.687285 174.588763,39.7328542 174.495793,39.7632336 L173.705225,39.899941 C173.658846,39.9152376 173.627856,40.0215656 173.627856,40.0823244 C173.627856,40.0975141 173.627856,40.1128108 173.658846,40.1128108 C174.123805,40.0975141 174.712831,40.0823244 175.549777,40.0823244 C176.386831,40.0823244 176.882886,40.0975141 177.487407,40.1128108 C177.518397,40.1128108 177.533785,40.0975141 177.533785,40.0823244 C177.533785,40.0215656 177.502795,39.9152376 177.456417,39.9152376 L176.696839,39.7481509 C176.603868,39.7328542 176.557383,39.687285 176.557383,39.5505777 C176.541781,38.9882376 176.665848,38.0156683 176.789809,37.4839216 C177.254874,35.6299214 178.014345,34.4750757 178.758322,34.4750757 C179.626365,34.4750757 179.81252,36.0097711 179.81252,37.3319175 C179.81252,38.030965 179.765928,39.2161901 179.734938,39.535281 C179.719336,39.6569056 179.672957,39.7176645 179.54889,39.7481509 L178.804914,39.9152376 C178.758322,39.9152376 178.727332,40.0368623 178.727332,40.0823244 C178.727332,40.0975141 178.742934,40.1128108 178.773924,40.1128108 C179.161407,40.0975141 179.827908,40.0823244 180.711446,40.0823244 C181.61048,40.0823244 182.153021,40.0975141 182.680066,40.1128108 C182.711056,40.1128108 182.711056,40.0975141 182.711056,40.0823244 C182.711056,40.0215656 182.680066,39.9152376 182.633474,39.9152376" id="Fill-96" fill="#BD9F34"></path>
                            <path d="M188.554219,37.5598166 L188.538617,37.5598166 C187.841126,37.5598166 187.298692,36.7240618 187.298692,35.5235399 C187.298692,34.1863108 187.655186,33.3200695 188.631801,33.3200695 C189.484243,33.3200695 189.825241,34.277449 189.825241,35.4324017 C189.825241,36.9672041 189.344681,37.5598166 188.554219,37.5598166 M187.314188,40.0064294 C187.407265,39.9303739 187.453643,39.9456705 187.686176,39.97605 C189.546223,40.3103305 190.677789,40.5686625 190.677789,41.4349038 C190.662294,42.1186546 190.057667,42.6961844 188.74016,42.6961844 L188.724772,42.6961844 C187.577603,42.6961844 186.709667,42.1034649 186.709667,41.2220339 C186.709667,40.6294214 186.988685,40.2495717 187.314188,40.0064294 M192.89433,33.1529827 L190.83274,33.1681724 C190.677789,33.1681724 190.507237,33.1681724 190.352286,33.137793 C189.980298,33.1074136 189.515233,33.0466547 188.83313,33.0466547 C186.585599,33.0466547 185.082152,34.1559313 185.082152,35.6907337 L185.082152,35.7059234 C185.082152,36.7848206 186.027564,37.696524 187.438255,37.8181486 C186.787142,38.0309115 186.167126,38.2284847 185.438645,38.47152 C185.345675,38.5020064 185.299083,38.5780619 185.299083,38.6843899 C185.299083,39.0490499 185.42315,39.2770025 185.671178,39.3985201 C185.950195,39.5353345 186.539221,39.717718 187.06616,39.8393426 C184.958192,40.7053699 184.493126,40.9182398 184.493126,41.526042 C184.493126,42.5745598 186.229106,42.9999786 188.151241,42.9999786 C191.421766,42.9999786 192.785865,41.8755123 192.785865,40.5838522 C192.785865,39.5960933 191.638803,39.2314333 189.31369,38.988291 C187.608594,38.8059076 187.06616,38.7147693 187.06616,38.47152 C187.06616,38.2740538 187.376275,38.1221567 188.027174,37.9701527 C188.321687,37.8942042 188.631801,37.8334453 188.80214,37.8029589 C190.553722,37.5446269 192.026286,36.7544412 192.026286,35.15888 C192.026286,34.6877851 191.855841,34.0343067 191.297805,33.6392673 L192.86334,33.396125 C192.909825,33.396125 192.940815,33.2745004 192.940815,33.1985518 C192.940815,33.1681724 192.92532,33.1529827 192.89433,33.1529827" id="Fill-98" fill="#BD9F34"></path>
                            <path d="M206.704344,37.9852889 C206.688742,37.9852889 206.673354,37.9852889 206.657752,38.0156683 C206.394336,38.4411941 206.115211,38.8667199 205.80531,39.276949 C205.74333,39.3832769 205.634758,39.4593325 205.479807,39.5049016 C204.720336,39.7024748 203.309645,39.7632336 202.643144,39.7632336 C202.534678,39.7632336 202.472698,39.7328542 202.472698,39.5656604 C202.472698,39.1402416 202.534678,36.2530203 202.550174,35.7514391 C202.550174,35.6299214 202.596766,35.599542 202.736221,35.5843523 C203.542178,35.5084037 205.076829,35.4324552 205.68135,35.3715894 C205.727728,35.3715894 205.80531,35.2045026 205.80531,35.1132574 C205.80531,35.0980677 205.80531,35.0828779 205.77432,35.0828779 C205.371235,35.0676882 203.635148,35.0372018 202.565669,34.9917397 C202.550174,34.4901584 202.643144,32.074032 202.720726,31.1470319 C202.720726,31.040704 202.736221,30.9951349 202.891172,30.9799452 C203.123704,30.9799452 204.472201,31.0863801 205.154197,31.2230875 C205.340245,31.2534669 205.464312,31.299036 205.541787,31.4357434 C205.77432,31.922028 205.991251,32.3779332 206.208288,32.8490281 C206.223783,32.8795145 206.239278,32.8795145 206.254773,32.8795145 C206.301365,32.8795145 206.440821,32.803459 206.440821,32.7578898 L206.332356,30.7671823 C206.332356,30.7064234 206.301365,30.676044 206.239278,30.676044 C206.053231,30.676044 204.859684,30.7216131 201.403219,30.7216131 L200.535176,30.7216131 C200.209673,30.7216131 199.853179,30.7064234 199.481085,30.7064234 C199.450094,30.7064234 199.450094,30.7216131 199.450094,30.7368029 C199.450094,30.8431308 199.496686,30.9495657 199.527677,30.9495657 L200.163081,31.0710834 C200.256158,31.1014628 200.318138,31.1623286 200.318138,31.3446051 C200.349128,31.8460794 200.380118,34.6878386 200.395613,35.2804511 C200.395613,35.9642019 200.426603,39.0489964 200.411108,39.5049016 C200.411108,39.6720953 200.349128,39.7176645 200.240663,39.7480439 L199.527677,39.899941 C199.481085,39.9152376 199.450094,40.0215656 199.450094,40.0823244 C199.450094,40.0975141 199.450094,40.1128108 199.496686,40.1128108 C200.00813,40.0975141 200.783203,40.0823244 201.387617,40.0823244 C203.154694,40.0823244 204.332746,40.0975141 205.107819,40.1128108 C205.882785,40.1431902 206.239278,40.158273 206.347744,40.158273 C206.425326,40.158273 206.456316,40.1278936 206.471811,40.0823244 L206.874789,38.1676724 C206.890284,38.1069136 206.766324,38.0005856 206.704344,37.9852889" id="Fill-100" fill="#BD9F34"></path>
                            <path d="M212.904032,35.8122621 C211.757077,35.402033 211.338604,35.0829421 211.338604,34.4750329 C211.338604,33.8671236 211.927523,33.3961357 212.687101,33.3961357 C213.121069,33.3961357 213.477562,33.4873809 213.679105,33.6087916 C213.787677,33.6848471 213.865046,33.7607957 213.942628,33.8671236 C214.17516,34.26227 214.392091,34.6422266 214.624624,35.0220763 C214.640119,35.0676454 214.655614,35.0676454 214.686604,35.0676454 C214.748691,35.0676454 214.88804,34.9766142 214.88804,34.9157484 L214.748691,33.3657563 C214.748691,33.3049975 214.717701,33.2745111 214.671109,33.2290489 C214.438576,33.122507 213.942628,33.0466654 213.260632,33.0466654 C211.013101,33.0466654 209.431965,34.2470803 209.431965,35.4172227 L209.431965,35.4324124 C209.431965,36.3442228 210.02099,36.9064559 211.555535,37.3775508 C212.811062,37.7877799 213.260632,38.1068708 213.260632,38.7603491 C213.260632,39.4744794 212.516549,39.8696257 211.586525,39.8696257 C211.199042,39.8696257 210.780568,39.7481081 210.610016,39.6416731 C210.501551,39.5657246 210.408473,39.5049658 210.330998,39.3833411 C210.083077,39.0034914 209.850545,38.562776 209.633507,38.1828193 C209.618012,38.1524399 209.587022,38.1524399 209.57142,38.1524399 C209.525042,38.1524399 209.369984,38.2131987 209.369984,38.2892542 L209.493945,39.8696257 C209.50944,39.960764 209.54043,39.9911434 209.60241,40.0216298 C209.912525,40.1431475 210.671996,40.2040133 210.997499,40.2040133 C213.508553,40.2040133 215.120572,39.2161474 215.120572,37.7725902 C215.120572,36.800021 214.361101,36.2985467 212.904032,35.8122621" id="Fill-102" fill="#BD9F34"></path>
                            <path d="M223.630039,39.3681728 C223.28904,39.4897974 222.979033,39.565746 222.808587,39.5809357 C222.638035,39.5961254 222.436492,39.6112081 222.29693,39.6112081 C221.211955,39.6112081 220.746997,38.9274573 220.746997,36.9976156 C220.746997,36.0097497 220.762492,34.7941451 220.839967,33.8215759 L223.506078,33.6241097 C223.552456,33.6241097 223.614437,33.4872953 223.614437,33.3808604 C223.614437,33.350481 223.599048,33.3353983 223.583446,33.3353983 L220.870957,33.3201016 C220.901947,32.7578684 221.026015,31.5422639 221.087995,31.0406826 C221.103383,30.9495443 221.072393,30.9039752 221.010413,30.9039752 C220.917443,30.9039752 220.235446,31.1774969 219.801478,31.3598804 C219.305423,31.5725363 219.150365,31.7702165 219.07289,32.0589279 C218.979813,32.4235879 218.902445,33.0314971 218.855853,33.2897222 L217.755383,33.2897222 C217.615928,33.2897222 217.491967,33.350481 217.445375,33.5480542 C217.414385,33.6391924 217.398783,33.7608171 217.398783,33.8063862 C217.398783,33.8520623 217.429773,33.867145 217.46087,33.867145 L218.793872,33.8215759 C218.65431,34.8700937 218.53035,36.3746236 218.53035,37.392655 C218.545951,39.5961254 219.599936,40.2039277 221.304926,40.2039277 C221.646031,40.2039277 221.878456,40.188738 222.049009,40.1735483 C222.653423,40.0672203 223.320031,39.7936986 223.630039,39.6416945 C223.661029,39.6265048 223.692019,39.5961254 223.692019,39.5352596 C223.692019,39.4289316 223.676524,39.3528761 223.630039,39.3681728" id="Fill-104" fill="#BD9F34"></path>
                        </g>
                    </g>
                </g>
            </g>
        </g>
    </g>
</svg>