<?xml version="1.0" encoding="UTF-8"?>
<svg width="20px" height="24px" viewBox="0 0 20 24" version="1.1" xmlns="http://www.w3.org/2000/svg" xmlns:xlink="http://www.w3.org/1999/xlink">
    <title>pin</title>
    <g id="Page-1" stroke="none" stroke-width="1" fill="none" fill-rule="evenodd">
        <g id="home-v2" transform="translate(-389.000000, -17.000000)" fill="#9D9B90" fill-rule="nonzero">
            <g id="Rectangle-18-copy-18" transform="translate(-8.462793, -184.000000)">
                <g id="Group-33" transform="translate(7.000000, 0.000000)">
                    <g id="pin" transform="translate(390.462793, 201.000000)">
                        <path d="M16.3518947,2.23675872 C14.0177759,0.360331787 10.9496435,-0.389554263 7.99193544,0.193490674 C4.15649617,0.965537348 1.13275346,3.86418117 0.254964381,7.61036622 C-0.622824701,11.3565513 0.806825138,15.2610986 3.91306644,17.6010871 C5.64964863,18.8489959 7.12821654,20.4102738 8.26971187,22.2014402 L9.04748585,23.4712555 C9.2484134,23.7993345 9.60979242,24 9.99970343,24 C10.3896144,24 10.7509935,23.7993345 10.951921,23.4712555 L11.6974729,22.2516219 C12.6914858,20.5360353 14.0468268,19.0483865 15.6730091,17.8879956 C18.2581359,16.141712 19.8572268,13.3042419 19.9909117,10.2261925 C20.1245966,7.1481432 18.7773355,4.18731835 16.3530058,2.23130418 L16.3518947,2.23675872 Z M9.99859233,14.1832768 C7.54400541,14.1832768 5.55416955,12.2296147 5.55416955,9.81965042 C5.55416955,7.40968613 7.54400541,5.45602406 9.99859233,5.45602406 C12.4531792,5.45602406 14.4430151,7.40968613 14.4430151,9.81965042 C14.4430151,12.2296147 12.4531792,14.1832768 9.99859233,14.1832768 L9.99859233,14.1832768 Z" id="Shape"></path>
                    </g>
                </g>
            </g>
        </g>
    </g>
</svg>