<?xml version="1.0" encoding="UTF-8"?>
<svg width="252px" height="207px" viewBox="0 0 252 207" version="1.1" xmlns="http://www.w3.org/2000/svg" xmlns:xlink="http://www.w3.org/1999/xlink">
    <title>placeholder</title>
    <defs>
        <rect id="path-1" x="0" y="0" width="251" height="207" rx="14.4"></rect>
    </defs>
    <g id="Page-1" stroke="none" stroke-width="1" fill="none" fill-rule="evenodd">
        <g id="home-v2" transform="translate(-1506.000000, -1996.000000)">
            <g id="Rectangle-18-copy-18" transform="translate(-8.462793, -184.000000)">
                <g id="Group-6" transform="translate(166.441516, 2084.000000)">
                    <g id="item" transform="translate(1334.021277, 84.000000)">
                        <g id="placeholder" transform="translate(14.021277, 12.000000)">
                            <mask id="mask-2" fill="white">
                                <use xlink:href="#path-1"></use>
                            </mask>
                            <use id="Mask" fill="#DDDDDD" xlink:href="#path-1"></use>
                            <g id="image" opacity="0.2" mask="url(#mask-2)" fill="#000000" fill-rule="nonzero">
                                <g transform="translate(87.000000, 72.000000)">
                                    <path d="M17.7069908,49.3182522 C13.1710273,49.3182522 9.13623485,46.4295631 7.67111289,42.1290387 L7.5720201,41.8049771 C7.22649198,40.6661173 7.08174371,39.7083811 7.08174371,38.750129 L7.08174371,19.5355472 L0.208018221,42.3571202 C-0.676035541,45.713841 1.33850719,49.193891 4.71856019,50.1211818 L48.5316213,61.7915273 C49.078448,61.9324011 49.6252746,62 50.1638003,62 C52.9856128,62 55.564103,60.1371618 56.2868065,57.3919267 L58.8393561,49.3182522 L17.7069908,49.3182522 Z" id="Path"></path>
                                    <path d="M25.4990116,19.7275072 C28.6243285,19.7275072 31.1654643,17.1995172 31.1654643,14.0910028 C31.1654643,10.9824885 28.6243285,8.45449855 25.4990116,8.45449855 C22.3736948,8.45449855 19.8320402,10.9824885 19.8320402,14.0910028 C19.8320402,17.1995172 22.3736948,19.7275072 25.4990116,19.7275072 Z" id="Path"></path>
                                    <path d="M60.9161561,0 L18.4151678,0 C14.5111157,0 11.3318425,3.16218061 11.3318425,7.04575941 L11.3318425,38.0452435 C11.3318425,41.9288223 14.5111157,45.0910029 18.4151678,45.0910029 L60.9161561,45.0910029 C64.8207268,45.0910029 68,41.9288223 68,38.0452435 L68,7.04575941 C68,3.16218061 64.8207268,0 60.9161561,0 L60.9161561,0 Z M18.4151678,5.63650428 L60.9161561,5.63650428 C61.698523,5.63650428 62.3330286,6.26759878 62.3330286,7.04575941 L62.3330286,27.0519185 L53.3825032,16.6638868 C52.4330792,15.5565043 51.0587492,14.9646276 49.5827321,14.9310861 C48.1150161,14.9393424 46.738092,15.5874656 45.7974878,16.7092967 L35.2739278,29.2723595 L31.8456254,25.8707448 C29.9078667,23.9434041 26.7540152,23.9434041 24.8188507,25.8707448 L16.998814,33.6461589 L16.998814,7.04575941 C16.998814,6.26759878 17.6333197,5.63650428 18.4151678,5.63650428 Z" id="Shape"></path>
                                </g>
                            </g>
                        </g>
                    </g>
                </g>
            </g>
        </g>
    </g>
</svg>