<?xml version="1.0" encoding="UTF-8"?>
<svg width="484px" height="209px" viewBox="0 0 484 209" version="1.1" xmlns="http://www.w3.org/2000/svg" xmlns:xlink="http://www.w3.org/1999/xlink">
    <title>placeholder_article</title>
    <g id="Page-1" stroke="none" stroke-width="1" fill="none" fill-rule="evenodd">
        <g id="home-v2" transform="translate(-1277.000000, -4286.000000)">
            <g id="Rectangle-18-copy-18" transform="translate(-8.462793, -184.000000)">
                <g id="Group-6" transform="translate(166.441516, 4375.000000)">
                    <g id="item" transform="translate(1105.021277, 84.000000)">
                        <g id="placeholder_article" transform="translate(15.000000, 12.000000)">
                            <rect id="Rectangle-3" stroke="#DEDEDE" fill="#DDDDDD" x="0" y="0" width="482" height="207" rx="14.4"></rect>
                            <g id="news" opacity="0.200000003" transform="translate(200.000000, 60.000000)" fill="#000000" fill-rule="nonzero">
                                <path d="M78,15.1744186 L78,71.8255814 C78,80.2058276 71.2839216,87 63,87 L15,87 C6.71592157,87 0,80.2058276 0,71.8255814 L0,15.1744186 C0,6.79401368 6.71592157,0 15,0 L63,0 C71.2839216,0 78,6.79401368 78,15.1744186 Z M59,32.372093 L19,32.372093 C17.344,32.372093 16,33.7317209 16,35.4069767 C16,37.0822326 17.344,38.4418605 19,38.4418605 L59,38.4418605 C60.656,38.4418605 62,37.0822326 62,35.4069767 C62,33.7317209 60.656,32.372093 59,32.372093 Z M59,48.5581395 L19,48.5581395 C17.344,48.5581395 16,49.9177674 16,51.5930233 C16,53.2682791 17.344,54.627907 19,54.627907 L59,54.627907 C60.656,54.627907 62,53.2682791 62,51.5930233 C62,49.9177674 60.656,48.5581395 59,48.5581395 Z M39,16.1860465 L19,16.1860465 C17.344,16.1860465 16,17.5456744 16,19.2209302 C16,20.896186 17.344,22.255814 19,22.255814 L39,22.255814 C40.656,22.255814 42,20.896186 42,19.2209302 C42,17.5456744 40.656,16.1860465 39,16.1860465 Z M59,64.744186 L19,64.744186 C17.344,64.744186 16,66.103814 16,67.7790698 C16,69.4543256 17.344,70.8139535 19,70.8139535 L59,70.8139535 C60.656,70.8139535 62,69.4543256 62,67.7790698 C62,66.103814 60.656,64.744186 59,64.744186 Z" id="Shape"></path>
                            </g>
                        </g>
                    </g>
                </g>
            </g>
        </g>
    </g>
</svg>