<?xml version="1.0" encoding="UTF-8"?>
<svg width="17px" height="20px" viewBox="0 0 17 20" version="1.1" xmlns="http://www.w3.org/2000/svg" xmlns:xlink="http://www.w3.org/1999/xlink">
    <title>user</title>
    <g id="Page-1" stroke="none" stroke-width="1" fill="none" fill-rule="evenodd">
        <g id="home-v2" transform="translate(-607.000000, -19.000000)" fill="#9D9B90" fill-rule="nonzero">
            <g id="Rectangle-18-copy-18" transform="translate(-8.462793, -184.000000)">
                <g id="Group-33" transform="translate(7.000000, 0.000000)">
                    <g id="Group-3" transform="translate(390.462793, 201.000000)">
                        <g id="Group-2" transform="translate(218.000000, 0.000000)">
                            <g id="user" transform="translate(0.000000, 2.000000)">
                                <path d="M8.37143588,9.63402072 C9.71988223,9.63402072 10.8875304,9.15932344 11.8415787,8.2227461 C12.7956271,7.28632137 13.2792582,6.14054765 13.2792582,4.81685778 C13.2792582,3.49362569 12.7956271,2.34769936 11.8414233,1.41096947 C10.8872195,0.474697316 9.71972678,0 8.37143588,0 C7.02283412,0 5.85549681,0.474697316 4.9014485,1.41112205 C3.94740019,2.34754678 3.46361359,3.49347311 3.46361359,4.81685778 C3.46361359,6.14054765 3.94740019,7.28647394 4.90160395,8.22289867 C5.85580775,9.15917083 7.02330046,9.63402072 8.37143588,9.63402072 Z" id="Path"></path>
                                <path d="M16.9588035,15.378911 C16.9312874,14.9892045 16.8756333,14.5640979 16.7937067,14.1151877 C16.7110028,13.6629207 16.6045138,13.2353727 16.4770379,12.8445981 C16.3453646,12.440701 16.1662765,12.0418393 15.9449037,11.6596095 C15.7151362,11.262884 15.4452604,10.9174277 15.1424274,10.6331586 C14.8257586,10.3357671 14.4380452,10.0966637 13.9897032,9.92225708 C13.5429157,9.74876594 13.0477806,9.66087599 12.5181338,9.66087599 C12.3101304,9.66087599 12.1089672,9.74464613 11.7204766,9.9929047 C11.4813816,10.1459492 11.2017119,10.3229498 10.8895514,10.5187186 C10.6226293,10.6856485 10.261033,10.8420499 9.81440095,10.9836503 C9.37865099,11.1220465 8.93621635,11.1922364 8.49953361,11.1922364 C8.06285092,11.1922364 7.62057173,11.1220465 7.18435542,10.9836503 C6.73818974,10.8422024 6.37659344,10.6858011 6.10998228,10.5188712 C5.80077545,10.3249334 5.52095029,10.1479328 5.27827971,9.99275213 C4.8902555,9.74449355 4.68893683,9.66072341 4.48093349,9.66072341 C3.95113119,9.66072341 3.45615159,9.74876594 3.00951956,9.92240965 C2.56148837,10.0965111 2.17361964,10.3356145 1.85663992,10.6333112 C1.55396236,10.9177329 1.2839311,11.2630367 1.05447447,11.6596095 C0.833257129,12.0418393 0.65416903,12.4405484 0.52234029,12.8447506 C0.395019834,13.2355252 0.288530827,13.6629207 0.205826948,14.1151877 C0.12390035,14.5634875 0.0682462562,14.9887467 0.0407301258,15.3793688 C0.0136803409,15.7620563 0,16.1592395 0,16.56039 C0,17.6043884 0.338122073,18.4495663 1.00488322,19.072883 C1.66340509,19.6879602 2.53474952,20 3.59435411,20 L13.4056459,20 C14.4652505,20 15.336284,19.6881127 15.9949613,19.072883 C16.661878,18.4500241 17,17.6046936 17,16.5602374 C17,16.1572559 16.9860088,15.7597675 16.9588035,15.378911 L16.9588035,15.378911 Z" id="Path"></path>
                            </g>
                        </g>
                    </g>
                </g>
            </g>
        </g>
    </g>
</svg>