<?xml version="1.0" encoding="utf-8"?>
<!-- Generator: Adobe Illustrator 26.0.0, SVG Export Plug-In . SVG Version: 6.00 Build 0)  -->
<svg version="1.1" id="Layer_1" xmlns="http://www.w3.org/2000/svg" xmlns:xlink="http://www.w3.org/1999/xlink" x="0px" y="0px"
	 viewBox="0 0 706.5 553.5" style="enable-background:new 0 0 706.5 553.5;" xml:space="preserve">
<style type="text/css">
	.st0{fill:url(#SVGID_1_);}
	.st1{fill:url(#SVGID_00000062194652356554912530000011065865166304225173_);}
	.st2{fill:url(#SVGID_00000178189935249747408420000006644959617512999575_);}
	.st3{fill:url(#SVGID_00000142865432993501173580000014222056994484344977_);}
	.st4{fill:url(#SVGID_00000168096439379162793410000017781594876963608733_);}
	.st5{fill:url(#SVGID_00000061435149543298435620000013006639932346721983_);}
</style>
<g>
	<linearGradient id="SVGID_1_" gradientUnits="userSpaceOnUse" x1="253.884" y1="286.4246" x2="485.4024" y2="286.4246">
		<stop  offset="0.2592" style="stop-color:#5B57A5"/>
		<stop  offset="0.3306" style="stop-color:#5350A1"/>
		<stop  offset="0.4431" style="stop-color:#3C3C98"/>
		<stop  offset="0.5" style="stop-color:#2E3092"/>
		<stop  offset="0.8615" style="stop-color:#474374"/>
	</linearGradient>
	<path class="st0" d="M389,158.8c-3.8-3.5-8.4-5.7-12.9-8.1c-1.2-0.6-2.4-1.2-3.5-1.9c-0.8-0.4-1.6-0.9-2.4-1.4
		c-1.3-0.8-2.7,0-3.9,0.8c-8.3,4.9-16.6,9.8-25,14.8c-0.8,0.4-1.7,0.8-2.6,1.2c-0.9,0.4-1.7,0.8-2.5,1.3
		c-25.9,14.9-51.8,30-77.8,44.7c-3.3,1.9-4.6,3.7-4.5,7.6C254,283,254,348.2,254,413.4c0,13.3,0,13.3,13.5,11.5
		c0.6,0.1,1.2,0.2,1.8,0.3c1.8,0.2,3.6,0.2,5.4-0.2c0.7,0.1,1.4,0.3,2.1,0.3c0.2,0,0.5,0,0.7,0c0.3,0,0.5,0,0.8,0
		c0.4,0,0.9-0.1,1.3-0.2c0.1,0,0.2-0.1,0.3-0.1c0.1,0,0.2-0.1,0.4-0.1c2.5,0.2,4,0.4,5,0.2c0.1,0,0.2,0,0.3-0.1
		c0.2,0,0.3-0.1,0.4-0.2c0.1-0.1,0.3-0.2,0.4-0.3c0.1-0.1,0.1-0.2,0.2-0.3c0.1-0.2,0.2-0.5,0.3-0.8c0.2-0.9,0.2-2.3,0.2-4.2
		c0-57.3,0-114.5-0.1-171.8c0-1.8,1-3.8-0.8-5.3c8.8-5.4,17.5-10.9,26.3-16.3c12.5-7.7,24.9-15.4,37.4-23.1c2.2-1.3,4.7-2.2,6.7-3.8
		c7.8-6.5,15.7-8.5,24-0.9c0.3,0.3,1,0.3,1.4,0.4c2.6,1.6,5.3,3.2,7.9,4.7c7.9,4.7,15.9,9.2,24.2,13.3c9.3,5.7,18.7,11.1,28.4,16
		c8.1,4.6,16.2,9.2,24.2,13.9c2.2,1.3,2.9,0.4,3.8-1.4c4.7-9.9,9.6-19.7,14.4-29.5c0.9-1.8,1-3-1.1-4.2
		c-10.6-5.7-21.2-11.6-31.8-17.4c-11-6.2-22-12.4-33-18.6c-8.5-4.8-16.9-9.6-25.4-14.4c-1.3-1.1-2.4-2.5-4.4-1.3
		C389.1,159.3,389.1,159,389,158.8z"/>
	
		<linearGradient id="SVGID_00000154397765299300817230000004412446541368164483_" gradientUnits="userSpaceOnUse" x1="103.7746" y1="346.2421" x2="592.3214" y2="346.2421">
		<stop  offset="0.2592" style="stop-color:#5B57A5"/>
		<stop  offset="0.3306" style="stop-color:#5350A1"/>
		<stop  offset="0.4431" style="stop-color:#3C3C98"/>
		<stop  offset="0.5" style="stop-color:#2E3092"/>
		<stop  offset="0.8615" style="stop-color:#474374"/>
	</linearGradient>
	<path style="fill:url(#SVGID_00000154397765299300817230000004412446541368164483_);" d="M591,269.3c-2.6-4.3-9.1-6.3-14.1-9.1
		c-5-2.8-9.7-6.3-15.5-8.3c0,2.2,0,4,0,5.7c0,40.6-0.1,81.3,0.1,121.9c0,4-1,4.8-4.9,4.8c-7-0.1-14.1,0-21.1,0.1
		c-3.5,0-7,0.1-10.5,0.1c-3.5,0-7,0.1-10.5,0.1c-4-0.5-7.9-0.6-11.9-0.6c-4,0-7.9,0.2-11.9,0.1c-8.4-0.1-8.4,0-8.4-8.6
		c0-14,0.5-28.1-0.2-42.1c-0.5-10.8,1.5-20.5,7.6-29.4c4.7-6.8,6.5-15.4,12.5-21.8c1.4,2,2.6,3.8,3.9,5.6c0.2,0.5,0.3,1,0.6,1.4
		c10.7,16.8,18.7,34.3,15.2,54.9c-0.4,2.3,0.7,3.1,2.9,3c6.8-0.1,13.5-0.1,20.3,0c2.6,0.1,3.2-0.9,3.2-3.4
		c-0.1-9.7-0.1-19.4-0.1-29.1c0-2.1-0.4-4.1-1.6-5.9c-4.4-7.1-7.7-14.8-11.3-22.3c-5.7-11.9-11.9-23.5-17.8-35.2
		c-1.4-4.5-3.5-8.7-6.1-12.5c0-1.2-0.6-2.2-1.4-3.1c-2.5-6.5-5.9-12.6-9.4-19.1c-1.8,2.8-3.3,5.4-4.4,8.1c-0.4,0.9-0.7,1.8-1.1,2.7
		c-0.5,1-1,2-1.5,3c-13.3,26-26.6,52-39.9,78c-1,2-0.8,4-0.8,6.1c0,21.5-0.2,43,0.1,64.5c0.1,4.5-1.3,5.7-5.5,5.1
		c-3.1-0.4-6.2-0.2-9.3-0.3c0-21.3-0.1-42.7,0-64c0-3.6-0.7-6.8-2.3-10c-10-19.6-19.8-39.3-29.8-58.9c-5.7-11.2-11.4-22.4-17.5-34.4
		c-1.2,2.2-2.1,3.6-2.8,5.1c-14,27.9-28,55.8-41.7,83.8c-2,4.1-4.4,5.4-8.8,5.3c-8.5-0.3-17,0-25.5-0.1c-3.2-0.1-4.7,0.7-4.6,4.3
		c0.2,9.5,0.1,19.1,0,28.6c-0.1,3,1,3.8,3.9,3.8c18.7-0.1,37.5-0.1,56.2,0.1c3.4,0,4-1.3,4-4.3c-0.2-6.6,0-13.2,0-19.8
		c0-2.1,0.3-4.1,1.3-6c6-10.8,12-21.6,17.9-32.4c0.6-1,0.6-2.6,2-2.7c1.5-0.1,1.7,1.5,2.2,2.5c5.2,10.2,10.3,20.4,15.4,30.6
		c0.8,1.6,1.1,3.2,1.1,5c0,20-0.1,39.9,0,59.9c0,3.1-0.7,4.1-4,4.1c-22.6-0.2-45.1-0.2-67.7-0.2c-2.1,0-4.1,0.2-6.2,0.3
		c-9-1.2-18-0.1-27-0.6c-3.7-0.2-4.7,1.2-4.7,4.8c0.2,13.9,0.1,27.8,0.1,41.7c0,8,0,8-8,8c-60.4,0-120.9,0.1-181.3,0
		c-4.1,0-6.5,0.4-6.3,5.4c0.4,8.8,0.3,17.7,0,26.6c-0.2,4.3,1.3,5.1,5.3,5.1c72.8-0.1,145.5,0,218.3,0.2c4.8,0,5.7-1.5,5.6-5.9
		c-0.3-13-0.1-26-0.1-39.1c0-0.8-0.1-1.5-0.1-2.3c0-0.5,0-0.9,0.1-1.3c0.1-0.8,0.5-1.6,1.2-2.3c1,0.1,2.1,0.3,3.1,0.3
		c32.8,0,65.7,0.1,98.5,0.1c1.2,0,2.4-0.3,3.6-0.4c22.5,0.1,44.9,0.3,67.4,0.4c3.6,0,7.2,0.5,10.8-0.4c1.7,0.1,3.4,0.3,5.2,0.3
		c21,0,42-0.1,63,0.2c5.2,0.1,6.2-1.5,6.2-6.4c-0.2-44.5-0.1-88.9-0.1-133.4C591.8,280.1,593.4,273.4,591,269.3z"/>
	
		<linearGradient id="SVGID_00000160157745270977026250000003516603576114221757_" gradientUnits="userSpaceOnUse" x1="61.0496" y1="255.472" x2="676.9266" y2="255.472">
		<stop  offset="0.2592" style="stop-color:#5B57A5"/>
		<stop  offset="0.3306" style="stop-color:#5350A1"/>
		<stop  offset="0.4431" style="stop-color:#3C3C98"/>
		<stop  offset="0.5" style="stop-color:#2E3092"/>
		<stop  offset="0.8615" style="stop-color:#474374"/>
	</linearGradient>
	<path style="fill:url(#SVGID_00000160157745270977026250000003516603576114221757_);" d="M676.9,266.9c0.1-3-1-4.6-3.6-6.1
		c-10.7-6-21.3-12.3-32-18.4c-20.1-11.6-40.3-23.1-60.4-34.6c-24.8-15-49.9-29.4-75.1-43.6c-14.5-8.5-28.9-17.1-43.4-25.5
		c-23.5-13.6-47.1-27.1-70.7-40.6c-2.6-2.2-5.5-3.9-8.7-5c-0.7-0.4-1.4-0.8-2-1.2c-2.1-2.2-5.1-2.8-7.4-4.6
		c-3.5-2.7-6.5-2.5-10.3-0.1c-7.3,4.7-14.9,8.8-22.4,13.2c-18.3,10.8-36.7,21.5-55,32.3c-12.1,6.2-23.7,13.3-35.4,20.2
		c-3.9,2.3-7.8,4.6-11.7,6.9c-29.9,17.1-59.6,34.6-89.4,52C121,228.2,92.5,244.8,64,261.3c-2,1.2-3,2.3-3,4.8
		c0.1,12,0.1,23.9,0,35.9c0,3.5,0.6,4.4,4,2.3C75.5,298,86,292,96.5,285.9c6-3.5,6.1-3.4,6.1,3.3c0,42,0,84,0,126
		c0,2.1,0,3.9,0.1,5.3c0.3,6.1,2.1,5.8,11.6,4.3c0.8,0.3,1.6,0.4,2.4,0.4c0.6,0,1.2-0.2,1.7-0.4c2.1,0.6,4.2,0.8,6.3,0.1
		c1.2,0.3,2.4,0.4,3.6,0.4c0.6,0,1.2,0,1.8-0.1c0.6,0,1.2-0.1,1.8-0.2c5,1,3.3-2.8,3.3-4.9c0.1-50.3,0.1-100.6,0.1-150.8
		c0-2.1,0.2-4.1,0.3-6.2c6-3.6,12-7.1,18-10.7c6-3.6,12-7.1,18.1-10.5c20.6-11.6,40.7-24,61.3-35.5c5.8-3.3,11.3-7.4,17.1-10.4
		c5.6-2.9,11.1-6,16.5-9.1c9.1-5.2,18-10.7,26.9-16.1c0,0,0,0,0,0c0,0,0,0,0,0c0,0,0,0,0,0c1.3-0.4,2.4-1,3.5-1.7
		c1.1-0.7,2.2-1.4,3.2-2.2c1.4-0.4,2.8-1,3.7-2.2c13.7-7.9,27.6-15.7,41.3-23.7c4.6-2.7,9.1-5.4,13.6-8.1c2.9-1.8,5.6-3.2,8.3-3.8
		c0.8-0.2,1.5-0.3,2.3-0.3c0.4,0,0.8,0,1.2,0c2.3,0.2,4.7,1.1,7.2,3.1c0.2,0.1,0.4,0.3,0.6,0.4c0.4,0.2,0.7,0.2,1.2-0.1l0.1,0.1
		c1.3,2.1,3.3,3.1,5.4,4c0.7,0.3,1.4,0.6,2.1,0.9c0.7,0.4,1.3,0.9,2,1.3c20.3,11.5,40.6,23,60.9,34.4c15.5,8.7,30.6,17.9,46.5,25.8
		c13.8,7.9,27.6,15.8,41.4,23.6c12.2,6.8,24.5,13.5,36.7,20.2c10.1,6.5,20.7,12.1,31.2,17.8c0,49.2,0,98.5,0,147.7
		c0,13.2,0,13.2,13.6,12.6c2.1,0,4.2,0,6.2,0c1,0,2.1,0,3.1-0.1c1.4,0,2.8,0,4.2,0c5,1.2,6.6-0.8,6.5-5.9
		c-0.2-43.4-0.2-86.7-0.1-130.1c0-1.4-0.8-3.1,1-4.4c11.8,6.6,23.7,13.3,36.3,20.3C676.9,288.3,676.7,277.6,676.9,266.9z"/>
	
		<linearGradient id="SVGID_00000014625802114189683330000017538707087292062627_" gradientUnits="userSpaceOnUse" x1="145.2966" y1="369.7751" x2="242.5242" y2="369.7751">
		<stop  offset="0.2592" style="stop-color:#5B57A5"/>
		<stop  offset="0.3306" style="stop-color:#5350A1"/>
		<stop  offset="0.4431" style="stop-color:#3C3C98"/>
		<stop  offset="0.5" style="stop-color:#2E3092"/>
		<stop  offset="0.8615" style="stop-color:#474374"/>
	</linearGradient>
	<path style="fill:url(#SVGID_00000014625802114189683330000017538707087292062627_);" d="M173.9,314.2c-8,0.2-16,0.3-23.9,0.1
		c-3.6-0.1-4.8,0.9-4.7,4.6c0.2,13.9,0.1,27.8,0.1,41.6c0,20.1,0,40.3,0,60.4c0,2-0.5,4.4,2.8,4.3c9.2-0.3,18.4,0.7,27.5-0.4
		c6.9,0.6,13.9,0.8,20.8,0c3.9,0.5,7.9,0.7,11.8,0.5c1.3-0.1,2.6-0.2,3.9-0.4c2.4,0.3,4.9,0.5,7.3,0.5c2.4,0,4.9-0.1,7.3-0.5
		c3.6,0.1,7.3,0,10.9,0.5c4,0.5,4.9-1,4.9-4.9c-0.2-30.8-0.1-61.7-0.1-92.5c0-14.5,0-14.5-14.6-13.2c-3.6-0.1-7.3,0-10.9-0.3
		c-3.9-0.4-5,1-4.9,4.9c0.2,22.9,0.1,45.8,0.1,68.7c-4.8,0.1-9.7,0.3-14.5,0.4c-4.2-0.1-8.3-0.2-12.5-0.2c-7.1,0-7.1,0-7.1-7
		c-0.1-20.6-0.1-41.2-0.2-61.9C179.6,315.3,178,314.1,173.9,314.2z"/>
	
		<linearGradient id="SVGID_00000035530323959405438820000014411548939116017587_" gradientUnits="userSpaceOnUse" x1="176.5853" y1="272.4651" x2="214.4085" y2="272.4651">
		<stop  offset="0.2592" style="stop-color:#5B57A5"/>
		<stop  offset="0.3306" style="stop-color:#5350A1"/>
		<stop  offset="0.4431" style="stop-color:#3C3C98"/>
		<stop  offset="0.5" style="stop-color:#2E3092"/>
		<stop  offset="0.8615" style="stop-color:#474374"/>
	</linearGradient>
	<path style="fill:url(#SVGID_00000035530323959405438820000014411548939116017587_);" d="M208,253.8c-1.7,0-3.5,0-5.2,0
		c-1.7,0-3.5,0-5.2,0c-3.5,0-6.9,0-10.4,0c-1.7-0.1-3.5,0-5.1-0.2c-4.4-0.6-5.6,1.3-5.4,5.5c0.3,7.4,0.1,14.8,0.1,22.2
		c0,11,0,11,11.2,9.4c3.2,0.8,6.4,0.5,9.7,0.3c1.7,0,3.5,0,5.2,0c1.7,0,3.5,0,5.2,0c5.1,1.2,6.7-0.6,6.4-6c-0.5-8.4-0.5-16.9,0-25.3
		C214.7,254.4,213.1,252.6,208,253.8z"/>
	
		<linearGradient id="SVGID_00000168838893313633251110000013217443202855935883_" gradientUnits="userSpaceOnUse" x1="363.2108" y1="456.336" x2="397.7506" y2="456.336">
		<stop  offset="0.2592" style="stop-color:#5B57A5"/>
		<stop  offset="0.3306" style="stop-color:#5350A1"/>
		<stop  offset="0.4431" style="stop-color:#3C3C98"/>
		<stop  offset="0.5" style="stop-color:#2E3092"/>
		<stop  offset="0.8615" style="stop-color:#474374"/>
	</linearGradient>
	<path style="fill:url(#SVGID_00000168838893313633251110000013217443202855935883_);" d="M397.7,443.2c0.2-4.3-1-6.1-5.3-4.9
		c-1,0-2.1,0-3.1,0c-1.7,0-3.5,0-5.2,0c-2.8,0-5.5,0-8.3,0c-2.9,0-5.9,0.1-8.8-0.2c-3.1-0.2-3.8,1.1-3.7,3.9c0.2,6.9,0,13.9,0,20.8
		c0,12.3,0,12.3,12.5,11.6c2.8,0,5.5,0,8.3,0c0.8,0,1.7,0,2.5,0c1.9,0,3.9,0,5.8,0c4.4,1.2,5.5-0.6,5.3-4.9
		C397.4,460.7,397.4,451.9,397.7,443.2z"/>
</g>
</svg>
