<?xml version="1.0" encoding="UTF-8" standalone="no" ?>
<!DOCTYPE svg PUBLIC "-//W3C//DTD SVG 1.1//EN" "http://www.w3.org/Graphics/SVG/1.1/DTD/svg11.dtd">
<svg xmlns="http://www.w3.org/2000/svg" xmlns:xlink="http://www.w3.org/1999/xlink" version="1.1" width="1080" height="1080" viewBox="0 0 1080 1080" xml:space="preserve">
<desc>Created with Fabric.js 5.2.4</desc>
<defs>
</defs>
<g transform="matrix(1 0 0 1 540 540)" id="e18eab76-188e-4f4b-afe7-9832d4bbdfbe"  >
</g>
<g transform="matrix(1 0 0 1 540 540)" id="e3f3a8f0-276b-4ffa-88f3-8e0b1b2e4277"  >
<rect style="stroke: none; stroke-width: 1; stroke-dasharray: none; stroke-linecap: butt; stroke-dashoffset: 0; stroke-linejoin: miter; stroke-miterlimit: 4; fill: rgb(255,255,255); fill-rule: nonzero; opacity: 1; visibility: hidden;" vector-effect="non-scaling-stroke"  x="-540" y="-540" rx="0" ry="0" width="1080" height="1080" />
</g>
<g transform="matrix(8.12 0 0 8.12 540.02 540.03)"  >
<g style="" vector-effect="non-scaling-stroke"   >
		<g transform="matrix(1 0 0 1 18.84 2.76)"  >
<path style="stroke: none; stroke-width: 1; stroke-dasharray: none; stroke-linecap: butt; stroke-dashoffset: 0; stroke-linejoin: miter; stroke-miterlimit: 4; fill: rgb(37,47,60); fill-rule: evenodd; opacity: 1;" vector-effect="non-scaling-stroke"  transform=" translate(-42.33, -32.77)" d="M 42.7840198 30.2304397 C 40.0245486 20.9909396 38.3401052 14.053132 43.2078294 5.53224177 C 37.0003272 13.3965809 36.5248563 21.5924575 39.2485833 31.6601877 C 41.429867 39.7211298 45.8930031 51.7765232 43.0580778 60 C 50.5308402 51.8661264 45.5904157 39.6267314 42.7840198 30.2304397" stroke-linecap="round" />
</g>
		<g transform="matrix(1 0 0 1 -0.74 2.18)"  >
<path style="stroke: none; stroke-width: 1; stroke-dasharray: none; stroke-linecap: butt; stroke-dashoffset: 0; stroke-linejoin: miter; stroke-miterlimit: 4; fill: rgb(37,47,60); fill-rule: evenodd; opacity: 1;" vector-effect="non-scaling-stroke"  transform=" translate(-22.75, -32.18)" d="M 33.1075908 51.2446137 C 30.726877 52.6388996 27.9316615 52.6349408 25.7272459 51.4525354 C 26.7642713 49.7942351 27.9567211 47.3780155 28.7349445 45.8134445 C 29.8935776 43.4837057 31.746223 43.2199143 33.413648 44.1856438 C 34.3166185 44.775341 34.9856813 45.7050509 35.2177164 46.8090603 C 35.5910764 48.5803823 34.6764848 50.3253864 33.1075908 51.2446137 M 22.7294609 28.9843252 C 21.9746448 25.0673776 25.5154788 21.8269424 27.6911447 18.9607553 C 30.0136432 15.902203 31.7669867 12.5047531 31.3050094 8.61752455 C 35.3378371 16.6248831 28.341647 25.3764445 24.9392189 32.3426329 C 23.9338622 31.4390736 22.98617 30.3180021 22.7294609 28.9843252 M 39.3224732 41.9136704 C 39.3224732 41.9136704 39.3229138 41.9133916 39.3231892 41.9131128 C 39.3206006 41.9098231 39.3174062 41.9068679 39.3143219 41.9034109 C 38.3874485 40.7000405 37.2000657 39.791686 35.8847414 39.2609251 C 31.1468313 37.1794769 26.5760216 39.4947744 24.1223872 45.6883792 C 23.7689097 46.5815117 23.3152489 47.5282277 22.8152693 48.5055549 C 22.7434502 48.3690035 22.674385 48.2298314 22.6103316 48.0861986 C 21.6122449 45.8576607 22.7823889 43.1053315 23.6284109 40.9628282 C 24.4498689 38.8817703 25.4813867 36.8764876 26.6368255 34.9474262 C 27.8904096 35.4340825 29.9859951 35.9892655 31.5971324 36.3429946 C 31.9094131 36.4567968 32.244275 36.527944 32.5948886 36.5477939 C 34.4456614 36.6517269 36.033777 35.2959698 36.1422766 33.5196297 C 36.2507763 31.7432895 34.8386285 30.2188085 32.9874701 30.1147083 C 31.1368625 30.0107752 29.548747 31.3663651 29.4405227 33.1425937 C 29.3824176 34.0904249 29.7604039 34.9640421 30.4039666 35.5909299 C 29.2269381 35.0866541 27.9909232 34.5392215 27.1992062 34.032102 C 28.1337352 32.5436407 29.121027 31.0864039 30.0382622 29.5876274 C 31.7373007 26.8103186 33.1123273 23.8450495 33.7242213 20.6624354 C 34.8424287 14.843692 33.0063612 9.2006423 29.5686845 4.40188102 C 33.8347037 12.0284121 22.5956814 17.3114878 20.9205458 23.9122379 C 20.4501971 25.766249 20.4350512 27.7653984 21.0233176 29.5966602 C 21.3183596 30.5141032 21.7710289 31.3852671 22.3803894 32.1482603 C 22.7042361 32.5536214 23.0704913 32.9363447 23.4787144 33.2647038 C 23.7227009 33.4610837 23.9823841 33.6383943 24.2504389 33.8027691 C 24.0700651 34.1995434 23.8949786 34.5984365 23.72562 34.9992812 C 21.8675771 39.3965287 20.2044481 45.1334193 22.1122246 49.800034 C 19.2259134 55.8452666 11.1048518 59.0059677 4.65507038 59.5798854 C 14.4496153 60.9749519 21.517349 58.4595387 24.4642438 53.2469969 C 24.7510243 53.5071083 25.0391818 53.7463661 25.3083931 53.9574103 C 26.5090492 54.8974354 27.9308904 55.5566071 29.4621125 55.8057899 C 31.5829779 56.1510995 33.7781407 55.722097 35.7127392 54.8616387 C 40.2366241 52.8495535 42.3944454 46.3701887 39.6107408 42.3080471 C 39.5180479 42.1728338 39.4214447 42.0423042 39.3224732 41.9136704" stroke-linecap="round" />
</g>
		<g transform="matrix(1 0 0 1 14.94 -26.46)"  >
<path style="stroke: none; stroke-width: 1; stroke-dasharray: none; stroke-linecap: butt; stroke-dashoffset: 0; stroke-linejoin: miter; stroke-miterlimit: 4; fill: rgb(37,47,60); fill-rule: evenodd; opacity: 1;" vector-effect="non-scaling-stroke"  transform=" translate(-38.44, -3.54)" d="M 35.7769963 6.88110162 C 35.9360006 6.82991572 36.1099305 6.77917589 36.2997223 6.72821303 C 36.488688 6.67719441 36.6780391 6.63364737 36.867886 6.59773918 C 37.0569067 6.56082735 37.2196562 6.54309628 37.3559141 6.54309628 L 40.6053963 6.54309628 L 41.6511787 4.7764023 C 40.6812359 4.89293663 39.8783384 4.83104519 39.2424313 4.59095101 C 38.6061386 4.35119137 37.8563895 3.91148334 36.9925229 3.27149238 L 37.8790808 1.87586826 C 38.2116295 2.48619593 39.1207685 3.00251552 40.6053963 3.42415794 L 41.4467918 2.0284223 C 39.9922355 1.63571831 38.9390728 0.959819165 38.2878546 0 C 36.7577891 2.21019356 35.9926187 3.59862489 35.9926187 4.16562856 C 35.9926187 4.29660423 36.0117851 4.40549971 36.0498977 4.4929841 C 36.0872943 4.57996667 36.1522839 4.65312124 36.2427738 4.71083083 L 36.4702926 4.88535354 C 36.5306558 4.92917937 36.6408078 4.98025375 36.7993164 5.03801909 C 36.9587613 5.09634202 37.0529963 5.14000058 37.0837838 5.16893901 C 36.4017781 5.43050005 35.871782 5.8887755 35.4929695 6.54309628 C 35.4625125 6.55737035 35.4171299 6.62651033 35.356271 6.75023746 C 35.2958526 6.87351852 35.250415 6.95726712 35.2204536 7.00070264 L 35.2204536 7.08818703 L 35.3793478 7.04475151 C 35.4852038 6.98631707 35.6180471 6.93172993 35.7769963 6.88110162" stroke-linecap="round" />
</g>
		<g transform="matrix(1 0 0 1 -14.04 0.95)"  >
<path style="stroke: none; stroke-width: 1; stroke-dasharray: none; stroke-linecap: butt; stroke-dashoffset: 0; stroke-linejoin: miter; stroke-miterlimit: 4; fill: rgb(37,47,60); fill-rule: evenodd; opacity: 1;" vector-effect="non-scaling-stroke"  transform=" translate(-9.46, -25.59)" d="M 15.2215105 47.9374305 C 15.2548315 47.8932144 15.2850131 47.8497789 15.3176731 47.8057858 C 22.1168565 39.6772092 17.7367198 28.5930654 14.8597165 19.4390424 C 13.2384452 14.2806974 11.365642 9.70981928 12.5333626 0 C 8.70508719 10.0091285 9.20528713 13.1754612 11.2720679 20.8099099 C 13.0556481 27.3980587 16.1347251 35.8386016 15.7359751 43.4907256 C 15.6397574 44.2137961 15.2667829 44.6112953 14.9212914 45.1014643 C 12.0998046 49.1049485 8.06653642 47.6537336 6.53531436 46.6596232 C 5.43021506 45.94224 4.13675595 43.7886967 5.35889168 41.5660133 C 6.8892876 38.7824039 9.92006304 39.928901 10.4978099 40.3620296 C 13.3766308 42.5196991 11.7094812 45.4537995 11.7094812 45.4537995 C 14.0606743 41.5001073 11.7276563 37.9237856 9.97205476 36.7032975 C 7.35908561 34.8869789 3.08056412 34.6831832 0.710424911 39.278093 C -1.33085569 43.2345174 1.33256304 48.8779017 4.8179906 50.3243771 C 6.40693228 50.9833258 11.6252701 52.7049673 15.2215105 47.9374305" stroke-linecap="round" />
</g>
</g>
</g>
</svg>